<svg id="Layer_1" data-name="Layer 1" xmlns="http://www.w3.org/2000/svg" viewBox="0 0 484.678 74.34"><defs><style>.cls-1{fill:#1879f2;}.cls-2{fill:#dc143c;}.cls-3{fill:none;stroke:#dc143c;stroke-linecap:round;stroke-miterlimit:10;stroke-width:1.5px;}</style></defs><title>gg_aclo_logo</title><path class="cls-1" d="M64.061,283.756q0-.856.045-1.7c.94,17.419,16.23,31.271,34.955,31.271s34.014-13.852,34.954-31.271q.045.844.046,1.7c0,18.21-15.67,32.972-35,32.972S64.061,301.966,64.061,283.756Z" transform="translate(-64.061 -246.728)"/><path class="cls-1" d="M64.061,279.7q0,.856.045,1.7c.94-17.419,16.23-31.271,34.955-31.271s34.014,13.852,34.954,31.271q.045-.844.046-1.7c0-18.21-15.67-32.971-35-32.971S64.061,261.489,64.061,279.7Z" transform="translate(-64.061 -246.728)"/><path class="cls-1" d="M100.944,310.571q-.8,0-1.579-.038c16.175-.774,29.037-13.375,29.037-28.805S115.54,253.7,99.365,252.922q.785-.037,1.579-.037c16.909,0,30.617,12.913,30.617,28.843S117.853,310.571,100.944,310.571Z" transform="translate(-64.061 -246.728)"/><path class="cls-1" d="M97.177,310.571q.795,0,1.58-.038c-16.175-.774-29.037-13.375-29.037-28.805S82.582,253.7,98.757,252.922q-.785-.037-1.58-.037c-16.909,0-30.616,12.913-30.616,28.843S80.268,310.571,97.177,310.571Z" transform="translate(-64.061 -246.728)"/><path class="cls-2" d="M104.446,272.732l10.715,0a12.281,12.281,0,0,1,5.039.707,2.861,2.861,0,0,1,1.521,2.829,14.077,14.077,0,0,1-.38,2.877l-3.708,17.307q-.856,4.038-2.615,5.249t-6.322,1.212H91.582l1.14-5.424h14.731a6.2,6.2,0,0,0,2.9-.431q.807-.526,1.282-2.777l2.827-12.964a10.357,10.357,0,0,0,.225-1.7,1.238,1.238,0,0,0-1.1-1.322,8.87,8.87,0,0,0-2.01-.141H103.3l-1.5,7.026h9.277l-1.14,5.423H94.22l-10.715,0a12.281,12.281,0,0,1-5.039-.707,2.861,2.861,0,0,1-1.521-2.829,14.077,14.077,0,0,1,.38-2.877l3.708-17.307q.856-4.038,2.615-5.249t6.322-1.211h17.114l-1.141,5.423H91.213a6.2,6.2,0,0,0-2.9.431q-.807.526-1.282,2.777l-2.827,12.964a10.357,10.357,0,0,0-.225,1.7,1.238,1.238,0,0,0,1.1,1.322,8.87,8.87,0,0,0,2.01.141h8.275l1.505-7.026H87.593l1.14-5.423Z" transform="translate(-64.061 -246.728)"/><path class="cls-2" d="M181.147,270.372l-5.364,2.259A15.956,15.956,0,0,0,174.1,268.9,11.856,11.856,0,0,0,171.6,266a11.127,11.127,0,0,0-3.31-1.883,11.754,11.754,0,0,0-4.047-.674,11.5,11.5,0,0,0-4.313.785,12.408,12.408,0,0,0-3.514,2.117,14.5,14.5,0,0,0-2.714,3.121,20.048,20.048,0,0,0-1.929,3.811,24.18,24.18,0,0,0-1.553,8.424,28.48,28.48,0,0,0,.769,6.557,18.6,18.6,0,0,0,2.447,5.866,13.275,13.275,0,0,0,4.345,4.219,12.237,12.237,0,0,0,6.462,1.616,5.057,5.057,0,0,0,3.231-.926,3.936,3.936,0,0,0,1.161-3.247V281.917h12.454v22.43h-3.607l-2.2-3.545a20.639,20.639,0,0,1-6.635,3.372,25.666,25.666,0,0,1-7.388,1.083,24.662,24.662,0,0,1-6.384-.817,23.727,23.727,0,0,1-5.694-2.321,23.029,23.029,0,0,1-8.454-8.376,23.2,23.2,0,0,1-2.353-5.662,24.937,24.937,0,0,1,0-12.768,23.484,23.484,0,0,1,2.353-5.678,22.911,22.911,0,0,1,8.454-8.392,23.768,23.768,0,0,1,5.694-2.321,24.662,24.662,0,0,1,6.384-.816,26.081,26.081,0,0,1,6.258.753,21.65,21.65,0,0,1,5.694,2.275,18.916,18.916,0,0,1,4.69,3.827A17.437,17.437,0,0,1,181.147,270.372Z" transform="translate(-64.061 -246.728)"/><path class="cls-2" d="M222.732,283.579a34.94,34.94,0,0,1-.894,7.654,46.7,46.7,0,0,1-2.494,7.812,43.423,43.423,0,0,1-3.827,7.2,31.149,31.149,0,0,1-4.894,5.819l-3.984-2.164a30.684,30.684,0,0,0,1.6-3.513q.753-1.946,1.365-4.125t1.1-4.5q.486-2.322.816-4.6t.5-4.424q.172-2.147.172-4,0-1.224-.094-2.62a19.6,19.6,0,0,0-.392-2.792,17.44,17.44,0,0,0-.8-2.682,7.825,7.825,0,0,0-1.333-2.258,6.43,6.43,0,0,0-2.008-1.569,6.076,6.076,0,0,0-2.776-.6,5.481,5.481,0,0,0-2.792.706,7.9,7.9,0,0,0-2.165,1.85,11.9,11.9,0,0,0-1.615,2.62,19.757,19.757,0,0,0-1.1,3.028,22.771,22.771,0,0,0-.8,5.756v18.164H185.683V254.781h10.6v18.665a14.343,14.343,0,0,1,5-4.6,13.5,13.5,0,0,1,6.572-1.616,16.245,16.245,0,0,1,6.557,1.223,12.662,12.662,0,0,1,4.643,3.4,14.341,14.341,0,0,1,2.76,5.176A22.414,22.414,0,0,1,222.732,283.579Z" transform="translate(-64.061 -246.728)"/><path class="cls-2" d="M263,304.347H252.4v-4.329a11.76,11.76,0,0,1-4.533,3.811,13.571,13.571,0,0,1-5.819,1.239,17.8,17.8,0,0,1-7.4-1.474,16.109,16.109,0,0,1-5.522-4.031,17.7,17.7,0,0,1-3.451-6.008,23.606,23.606,0,0,1,0-14.807,17.7,17.7,0,0,1,3.451-6.008,16.122,16.122,0,0,1,5.522-4.031,17.8,17.8,0,0,1,7.4-1.474,12.662,12.662,0,0,1,7.482,2.4,12.908,12.908,0,0,1,2.792,2.761,13.259,13.259,0,0,1,1.9,3.591l4.7-7.874H263Zm-10.666-18.2q0-1.41-.142-2.98a24.018,24.018,0,0,0-.485-3.106,16.174,16.174,0,0,0-.957-2.932,9.428,9.428,0,0,0-1.569-2.479,6.976,6.976,0,0,0-2.306-1.71,7.371,7.371,0,0,0-3.137-.627,6.761,6.761,0,0,0-5.364,2.369,9.532,9.532,0,0,0-1.553,2.494,16.463,16.463,0,0,0-.957,2.948,24.039,24.039,0,0,0-.486,3.091q-.141,1.553-.141,2.932t.141,2.95a23.951,23.951,0,0,0,.486,3.105,16.448,16.448,0,0,0,.957,2.949,9.548,9.548,0,0,0,1.553,2.494,6.77,6.77,0,0,0,5.364,2.369,6.092,6.092,0,0,0,2.9-.675,7.513,7.513,0,0,0,2.227-1.8,11.078,11.078,0,0,0,1.616-2.572,18.719,18.719,0,0,0,1.066-2.981,23.573,23.573,0,0,0,.785-5.835Z" transform="translate(-64.061 -246.728)"/><path class="cls-2" d="M299.44,271.313l-5.961,9.882q-.375-1.255-.972-2.823a15.824,15.824,0,0,0-1.474-2.934,8.863,8.863,0,0,0-2.1-2.29,4.56,4.56,0,0,0-2.824-.925,4.36,4.36,0,0,0-2.556.753,6.609,6.609,0,0,0-1.836,1.961,12.066,12.066,0,0,0-1.239,2.729,22.808,22.808,0,0,0-.753,3.074,28.568,28.568,0,0,0-.36,2.981q-.094,1.427-.094,2.462v18.164H268.634V268.113h4.078l4.3,8.439a23.954,23.954,0,0,1,2.008-3.748,13.661,13.661,0,0,1,2.6-2.95,11.192,11.192,0,0,1,3.341-1.929,12.131,12.131,0,0,1,4.22-.69,20.658,20.658,0,0,1,2.729.2,16.011,16.011,0,0,1,2.949.691,12.1,12.1,0,0,1,2.666,1.27A6,6,0,0,1,299.44,271.313Z" transform="translate(-64.061 -246.728)"/><path class="cls-1" d="M336.351,299.986a25.43,25.43,0,0,1-1.287,8.157,20.036,20.036,0,0,1-3.732,6.7,17.71,17.71,0,0,1-6.008,4.549,18.8,18.8,0,0,1-8.109,1.678,23.467,23.467,0,0,1-5.067-.564,19.749,19.749,0,0,1-4.831-1.741,16.368,16.368,0,0,1-4.078-2.981,13.224,13.224,0,0,1-2.839-4.251l4.58-1.724a11.938,11.938,0,0,0,1.553,2.823,10.58,10.58,0,0,0,2.211,2.211,10.219,10.219,0,0,0,2.761,1.443,9.678,9.678,0,0,0,3.169.518,9.965,9.965,0,0,0,5.255-1.286,10.155,10.155,0,0,0,3.4-3.357,14.676,14.676,0,0,0,1.851-4.69,25.127,25.127,0,0,0,.565-5.318v-2.132a11.775,11.775,0,0,1-4.533,3.811,13.574,13.574,0,0,1-5.819,1.239,17.816,17.816,0,0,1-7.405-1.474,16.11,16.11,0,0,1-5.52-4.031,17.669,17.669,0,0,1-3.451-6.008,23.588,23.588,0,0,1,0-14.807,17.669,17.669,0,0,1,3.451-6.008,16.123,16.123,0,0,1,5.52-4.031,17.816,17.816,0,0,1,7.405-1.474,12.662,12.662,0,0,1,7.481,2.4,12.908,12.908,0,0,1,2.792,2.761,13.287,13.287,0,0,1,1.9,3.591l4.7-7.874h4.079Zm-10.666-13.835q0-1.41-.141-2.98a24.37,24.37,0,0,0-.486-3.106,16.1,16.1,0,0,0-.957-2.932,9.454,9.454,0,0,0-1.569-2.479,6.982,6.982,0,0,0-2.305-1.71,7.379,7.379,0,0,0-3.138-.627,6.761,6.761,0,0,0-5.364,2.369,9.558,9.558,0,0,0-1.553,2.494,16.463,16.463,0,0,0-.957,2.948,23.866,23.866,0,0,0-.486,3.091q-.141,1.553-.141,2.932t.141,2.95a23.781,23.781,0,0,0,.486,3.105,16.448,16.448,0,0,0,.957,2.949,9.575,9.575,0,0,0,1.553,2.494,7.07,7.07,0,0,0,2.258,1.725,6.994,6.994,0,0,0,3.106.644,6.089,6.089,0,0,0,2.9-.675,7.53,7.53,0,0,0,2.228-1.8,11.075,11.075,0,0,0,1.615-2.572,18.621,18.621,0,0,0,1.066-2.981,23.573,23.573,0,0,0,.785-5.835Z" transform="translate(-64.061 -246.728)"/><path class="cls-1" d="M379.034,283.579a35,35,0,0,1-.894,7.654,46.791,46.791,0,0,1-2.494,7.812,43.353,43.353,0,0,1-3.828,7.2,31.107,31.107,0,0,1-4.893,5.819L362.94,309.9a30.684,30.684,0,0,0,1.6-3.513q.753-1.946,1.365-4.125t1.1-4.5q.486-2.322.815-4.6t.5-4.424q.174-2.147.173-4,0-1.224-.094-2.62a19.885,19.885,0,0,0-.392-2.792,17.44,17.44,0,0,0-.8-2.682,7.825,7.825,0,0,0-1.333-2.258,6.453,6.453,0,0,0-2.008-1.569,6.076,6.076,0,0,0-2.776-.6,5.478,5.478,0,0,0-2.792.706,7.919,7.919,0,0,0-2.165,1.85,11.9,11.9,0,0,0-1.615,2.62,19.652,19.652,0,0,0-1.1,3.028,22.837,22.837,0,0,0-.8,5.756v18.164H341.984V254.781h10.6v18.665a14.346,14.346,0,0,1,5-4.6,13.5,13.5,0,0,1,6.572-1.616,16.248,16.248,0,0,1,6.557,1.223,12.65,12.65,0,0,1,4.642,3.4,14.312,14.312,0,0,1,2.761,5.176A22.448,22.448,0,0,1,379.034,283.579Z" transform="translate(-64.061 -246.728)"/><path class="cls-1" d="M419.3,304.347H408.7v-4.329a11.768,11.768,0,0,1-4.533,3.811,13.574,13.574,0,0,1-5.819,1.239,17.816,17.816,0,0,1-7.4-1.474,16.12,16.12,0,0,1-5.52-4.031,17.685,17.685,0,0,1-3.451-6.008,23.569,23.569,0,0,1,0-14.807,17.685,17.685,0,0,1,3.451-6.008,16.133,16.133,0,0,1,5.52-4.031,17.816,17.816,0,0,1,7.4-1.474,12.662,12.662,0,0,1,7.481,2.4,12.908,12.908,0,0,1,2.792,2.761,13.29,13.29,0,0,1,1.9,3.591l4.7-7.874H419.3Zm-10.666-18.2q0-1.41-.141-2.98a24.37,24.37,0,0,0-.486-3.106,16.1,16.1,0,0,0-.957-2.932,9.428,9.428,0,0,0-1.569-2.479,6.982,6.982,0,0,0-2.305-1.71,7.379,7.379,0,0,0-3.138-.627,6.765,6.765,0,0,0-5.364,2.369,9.558,9.558,0,0,0-1.553,2.494,16.463,16.463,0,0,0-.957,2.948,24.039,24.039,0,0,0-.486,3.091q-.141,1.553-.141,2.932t.141,2.95a23.951,23.951,0,0,0,.486,3.105,16.448,16.448,0,0,0,.957,2.949,9.575,9.575,0,0,0,1.553,2.494,7.074,7.074,0,0,0,2.259,1.725,6.99,6.99,0,0,0,3.105.644,6.089,6.089,0,0,0,2.9-.675,7.53,7.53,0,0,0,2.228-1.8,11.042,11.042,0,0,0,1.615-2.572,18.625,18.625,0,0,0,1.067-2.981,23.632,23.632,0,0,0,.784-5.835Z" transform="translate(-64.061 -246.728)"/><path class="cls-1" d="M461.451,304.347h-4.078l-4.7-7.874a13.067,13.067,0,0,1-4.69,6.321,12.67,12.67,0,0,1-7.482,2.4,17.8,17.8,0,0,1-7.4-1.473,16.124,16.124,0,0,1-5.522-4.032,17.69,17.69,0,0,1-3.451-6.007,23.606,23.606,0,0,1,0-14.807,17.508,17.508,0,0,1,3.451-5.992,16.228,16.228,0,0,1,5.522-4.016,17.8,17.8,0,0,1,7.4-1.474,13.726,13.726,0,0,1,5.819,1.223,11.551,11.551,0,0,1,4.534,3.827V254.781h10.6Zm-10.666-18.07a22.46,22.46,0,0,0-.187-2.76,23.177,23.177,0,0,0-.6-3.043,18.754,18.754,0,0,0-1.066-2.981,11.078,11.078,0,0,0-1.616-2.572,7.542,7.542,0,0,0-2.227-1.8,6.105,6.105,0,0,0-2.9-.675,6.77,6.77,0,0,0-5.364,2.37,9.579,9.579,0,0,0-1.553,2.493,16.609,16.609,0,0,0-.957,2.949,24.2,24.2,0,0,0-.485,3.09q-.142,1.553-.142,2.933t.142,2.933a24.2,24.2,0,0,0,.485,3.09,17.073,17.073,0,0,0,.957,2.965,9.509,9.509,0,0,0,1.553,2.509,6.765,6.765,0,0,0,5.364,2.369,7.357,7.357,0,0,0,3.138-.627,6.973,6.973,0,0,0,2.306-1.71,9.383,9.383,0,0,0,1.568-2.479,15.91,15.91,0,0,0,.957-2.948,24.634,24.634,0,0,0,.487-3.122Q450.785,287.689,450.785,286.277Z" transform="translate(-64.061 -246.728)"/><path class="cls-1" d="M501.938,280a10.312,10.312,0,0,1-.721,3.969,10.051,10.051,0,0,1-1.961,3.058,11.8,11.8,0,0,1-2.87,2.227,18.44,18.44,0,0,1-3.483,1.49,22.067,22.067,0,0,1-3.811.832,30.069,30.069,0,0,1-3.812.251,32.5,32.5,0,0,1-4.642-.33,27.1,27.1,0,0,1-4.518-1.051,18.7,18.7,0,0,0,1.1,3.938,10.973,10.973,0,0,0,2.008,3.262,9.008,9.008,0,0,0,3.09,2.211,10.624,10.624,0,0,0,4.345.817,9.966,9.966,0,0,0,3.168-.5,10.161,10.161,0,0,0,2.761-1.412A10.625,10.625,0,0,0,494.8,296.6a11.333,11.333,0,0,0,1.552-2.792l4.581,1.694a13.167,13.167,0,0,1-2.839,4.282,16.38,16.38,0,0,1-4.078,2.981,19.778,19.778,0,0,1-4.831,1.741,23.481,23.481,0,0,1-5.067.564,20.543,20.543,0,0,1-7.655-1.4,17.633,17.633,0,0,1-10.038-9.9,20.843,20.843,0,0,1,0-15.246,17.643,17.643,0,0,1,10.038-9.9,20.543,20.543,0,0,1,7.655-1.4,30.723,30.723,0,0,1,4.109.283,25.128,25.128,0,0,1,4.079.893A19.8,19.8,0,0,1,496.041,270a11.941,11.941,0,0,1,3.059,2.4,11.1,11.1,0,0,1,2.07,3.309A11.3,11.3,0,0,1,501.938,280Zm-26.131,7.152q1.944.44,3.889.691a30.5,30.5,0,0,0,3.922.251,17.749,17.749,0,0,0,3.843-.393,8.351,8.351,0,0,0,3.074-1.317,6.424,6.424,0,0,0,2.055-2.463,8.665,8.665,0,0,0,.753-3.827,10.886,10.886,0,0,0-.5-3.388,7.258,7.258,0,0,0-1.49-2.635,6.78,6.78,0,0,0-2.431-1.71,8.551,8.551,0,0,0-3.357-.612,7.585,7.585,0,0,0-3.215.659,8.351,8.351,0,0,0-2.51,1.773,10.952,10.952,0,0,0-1.852,2.587,18.93,18.93,0,0,0-1.27,3.075,19.482,19.482,0,0,0-.721,3.231,23.172,23.172,0,0,0-.22,3.074v.5A3.835,3.835,0,0,0,475.807,287.155Z" transform="translate(-64.061 -246.728)"/><path class="cls-1" d="M536.151,271.313,530.19,281.2q-.377-1.255-.971-2.823a15.828,15.828,0,0,0-1.475-2.934,8.846,8.846,0,0,0-2.1-2.29,4.558,4.558,0,0,0-2.824-.925,4.36,4.36,0,0,0-2.556.753,6.606,6.606,0,0,0-1.835,1.961,12.066,12.066,0,0,0-1.239,2.729,22.51,22.51,0,0,0-.753,3.074,28.851,28.851,0,0,0-.361,2.981q-.093,1.427-.095,2.462v18.164H505.345V268.113h4.079l4.3,8.439a24.038,24.038,0,0,1,2.008-3.748,13.639,13.639,0,0,1,2.6-2.95,11.167,11.167,0,0,1,3.341-1.929,12.126,12.126,0,0,1,4.219-.69,20.646,20.646,0,0,1,2.729.2,15.992,15.992,0,0,1,2.949.691,12.057,12.057,0,0,1,2.666,1.27A5.978,5.978,0,0,1,536.151,271.313Z" transform="translate(-64.061 -246.728)"/><path class="cls-1" d="M548.5,259.361a5.7,5.7,0,0,1-.454,2.259,5.73,5.73,0,0,1-3.091,3.09,5.7,5.7,0,0,1-2.259.454,5.581,5.581,0,0,1-2.242-.454,5.887,5.887,0,0,1-1.836-1.239,5.821,5.821,0,0,1-1.238-1.851,5.685,5.685,0,0,1-.455-2.259,5.573,5.573,0,0,1,.455-2.243,5.807,5.807,0,0,1,3.074-3.074,5.565,5.565,0,0,1,2.242-.455,5.685,5.685,0,0,1,2.259.455,5.823,5.823,0,0,1,1.852,1.239,5.882,5.882,0,0,1,1.239,1.835A5.59,5.59,0,0,1,548.5,259.361Zm-.47,44.986H537.4v-36.2h10.634Z" transform="translate(-64.061 -246.728)"/><path class="cls-2" d="M514.036,315.74a1.451,1.451,0,0,1-.11.562,1.357,1.357,0,0,1-.306.454,1.52,1.52,0,0,1-.455.307,1.427,1.427,0,0,1-1.113,0,1.52,1.52,0,0,1-.455-.307,1.357,1.357,0,0,1-.306-.454,1.451,1.451,0,0,1-.11-.562,1.42,1.42,0,0,1,.11-.552,1.376,1.376,0,0,1,.306-.456,1.515,1.515,0,0,1,.455-.305,1.415,1.415,0,0,1,1.113,0,1.515,1.515,0,0,1,.455.305,1.376,1.376,0,0,1,.306.456A1.42,1.42,0,0,1,514.036,315.74Z" transform="translate(-64.061 -246.728)"/><path class="cls-2" d="M523.521,310.1l-1.144.455a2.516,2.516,0,0,0-.918-1.326,2.577,2.577,0,0,0-1.545-.462,2.3,2.3,0,0,0-.866.152,2.122,2.122,0,0,0-.667.42,2.575,2.575,0,0,0-.486.62,3.789,3.789,0,0,0-.326.753,4.788,4.788,0,0,0-.18.827,6.611,6.611,0,0,0-.055.827,8.237,8.237,0,0,0,.047.87,5.061,5.061,0,0,0,.161.844,3.579,3.579,0,0,0,.3.753,2.224,2.224,0,0,0,.474.607,2.117,2.117,0,0,0,.683.409,2.59,2.59,0,0,0,.913.148,2.478,2.478,0,0,0,.792-.125,2.514,2.514,0,0,0,.69-.353,2.722,2.722,0,0,0,.557-.542,2.6,2.6,0,0,0,.385-.7l1.152.423a3.481,3.481,0,0,1-.685,1.07,3.89,3.89,0,0,1-.969.746,4.525,4.525,0,0,1-1.161.435,5.578,5.578,0,0,1-1.255.142,5.1,5.1,0,0,1-1.9-.35A4.445,4.445,0,0,1,515,314.271a4.9,4.9,0,0,1-.361-1.9,4.994,4.994,0,0,1,.357-1.913,4.368,4.368,0,0,1,2.506-2.471,5.208,5.208,0,0,1,1.921-.345,5.729,5.729,0,0,1,1.286.145,4.385,4.385,0,0,1,1.165.447,3.96,3.96,0,0,1,.965.765A3.57,3.57,0,0,1,523.521,310.1Z" transform="translate(-64.061 -246.728)"/><path class="cls-2" d="M533.855,312.368a4.515,4.515,0,0,1-.188,1.325,4.656,4.656,0,0,1-.521,1.146,4.5,4.5,0,0,1-.8.945,5,5,0,0,1-1.031.709,5.342,5.342,0,0,1-1.2.447,5.522,5.522,0,0,1-2.623,0,5.356,5.356,0,0,1-1.2-.447,4.97,4.97,0,0,1-1.031-.709,4.5,4.5,0,0,1-.8-.945,4.6,4.6,0,0,1-.521-1.15,4.711,4.711,0,0,1,0-2.642,4.6,4.6,0,0,1,.521-1.15,4.491,4.491,0,0,1,.8-.944,4.974,4.974,0,0,1,1.031-.71,5.512,5.512,0,0,1,5.02,0,5,5,0,0,1,1.031.71,4.491,4.491,0,0,1,.8.944,4.634,4.634,0,0,1,.521,1.15A4.526,4.526,0,0,1,533.855,312.368Zm-2.7,0a7.46,7.46,0,0,0-.043-.8,5.8,5.8,0,0,0-.144-.823,4.243,4.243,0,0,0-.279-.776,2.551,2.551,0,0,0-.435-.652,1.911,1.911,0,0,0-1.459-.615,1.834,1.834,0,0,0-.808.172,2.046,2.046,0,0,0-.615.459,2.575,2.575,0,0,0-.439.663,4.762,4.762,0,0,0-.287.78,5.464,5.464,0,0,0-.157.816,6.372,6.372,0,0,0,0,1.545,5.576,5.576,0,0,0,.157.819,4.567,4.567,0,0,0,.287.78,2.569,2.569,0,0,0,.439.659,2.03,2.03,0,0,0,.615.459,1.807,1.807,0,0,0,.808.173,1.933,1.933,0,0,0,.831-.169,1.985,1.985,0,0,0,.624-.451,2.532,2.532,0,0,0,.436-.651,4.556,4.556,0,0,0,.278-.777,5.482,5.482,0,0,0,.148-.823A7.346,7.346,0,0,0,531.157,312.368Z" transform="translate(-64.061 -246.728)"/><path class="cls-2" d="M548.738,311.631a9.2,9.2,0,0,1-.219,1.945,11.654,11.654,0,0,1-.617,1.973,10.949,10.949,0,0,1-.952,1.815,7.818,7.818,0,0,1-1.239,1.483l-1-.542a6.529,6.529,0,0,0,.415-.917q.189-.51.346-1.075t.274-1.161q.117-.6.2-1.188c.055-.395.095-.777.121-1.149s.039-.718.039-1.043c0-.183,0-.381-.015-.6a5.841,5.841,0,0,0-.067-.643,3.58,3.58,0,0,0-.153-.616,1.842,1.842,0,0,0-.278-.525,1.307,1.307,0,0,0-.439-.369,1.359,1.359,0,0,0-.632-.137.993.993,0,0,0-.615.192,1.678,1.678,0,0,0-.435.5,2.832,2.832,0,0,0-.287.691,6.085,6.085,0,0,0-.161.772q-.054.389-.074.741c-.014.236-.019.434-.019.6v4.541h-2.644V312.7q0-.273.008-.662t-.02-.811a7.474,7.474,0,0,0-.1-.844,2.824,2.824,0,0,0-.236-.749,1.459,1.459,0,0,0-.435-.537,1.108,1.108,0,0,0-.69-.208.9.9,0,0,0-.592.2,1.589,1.589,0,0,0-.4.506,2.975,2.975,0,0,0-.251.7,6.789,6.789,0,0,0-.134.777q-.042.387-.05.737c-.006.232-.008.425-.008.576v4.541h-2.659v-9.059h1.019l.973,2.111a3.551,3.551,0,0,1,1.039-1.714,2.782,2.782,0,0,1,1.887-.616,3.237,3.237,0,0,1,1.756.439,2.9,2.9,0,0,1,1.1,1.428,4.708,4.708,0,0,1,.506-.777,3.175,3.175,0,0,1,.619-.588,2.644,2.644,0,0,1,.757-.372,3.085,3.085,0,0,1,.918-.13,3.758,3.758,0,0,1,1.58.3,2.847,2.847,0,0,1,1.071.835,3.427,3.427,0,0,1,.6,1.267A6.4,6.4,0,0,1,548.738,311.631Z" transform="translate(-64.061 -246.728)"/><line class="cls-3" x1="273.425" y1="68.418" x2="444.265" y2="68.418"/></svg>