<?xml version="1.0" encoding="utf-8"?>
<!-- Generator: Adobe Illustrator 23.0.5, SVG Export Plug-In . SVG Version: 6.00 Build 0)  -->
<svg version="1.1" id="Layer_1" xmlns="http://www.w3.org/2000/svg" xmlns:xlink="http://www.w3.org/1999/xlink" x="0px" y="0px"
	 viewBox="0 0 3950 2000" style="enable-background:new 0 0 3950 2000;" xml:space="preserve">
<style type="text/css">
	.st0{opacity:0.5;}
	.st1{fill:#9BC1F9;}
	.st2{fill:#C5DDF9;}
	.st3{fill:#FFFFFF;}
	.st4{fill:#F7A491;}
	.st5{fill:#184655;}
	.st6{fill:#E8BA70;}
	.st7{fill:#F7CC7F;}
	.st8{fill:#B22832;}
	.st9{fill:#EC1C24;}
	.st10{fill:#F47458;}
	.st11{fill:#F8A492;}
	.st12{fill:#3C8F7C;}
	.st13{fill:#0E2E35;}
	.st14{fill:#215E4B;}
	.st15{fill:#327F6B;}
	.st16{fill:#F9C573;}
	.st17{fill:#EAFCFC;}
	.st18{fill:#C4DBF7;}
	.st19{fill:#5D96DB;}
	.st20{fill:#EAB054;}
	.st21{fill:#F0F7FF;}
	.st22{opacity:0.5;fill:#FFFFFF;}
	.st23{fill:#B75742;}
	.st24{opacity:0.3;fill:#B22832;}
	.st25{fill:#355389;}
	.st26{fill:#50BFA5;}
	.st27{fill:#13375B;}
	.st28{fill:#F48C7F;}
	.st29{fill:#1A1A1A;}
	.st30{fill:#FE875E;}
</style>
<g>
	<g class="st0">
		<rect x="488.4" y="443.7" class="st1" width="656.1" height="1299"/>
		<rect x="511.6" y="462.6" class="st2" width="609.5" height="1259.7"/>
		<polygon class="st3" points="771.3,1722.3 843.7,1722.3 1084.4,462.6 1012,462.6 		"/>
		<polygon class="st3" points="868.2,462.6 719,462.6 511.6,1548.3 511.6,1722.3 627.5,1722.3 		"/>
	</g>
	<g class="st0">
		<polygon class="st3" points="664.7,1675.2 732.7,1675.2 958.6,492.6 890.7,492.6 		"/>
		<polygon class="st3" points="755.7,492.6 615.6,492.6 420.9,1511.8 420.9,1675.2 529.7,1675.2 		"/>
	</g>
	<g>
		<path class="st4" d="M802.4,1144.1l43,24.8l-2.7,34.3c46.2,20.4,105.4,34.4,105.4,34.4s6.3,1.7,14.6,3.2c7.6,1.4,18.3,3.3,22.5,4
			c6.8,1.2,12.8,0.8,17.9,0.3c5-0.5,13.7-1.3,17.3,0.1c2.3,0.9,8.5,3.1,11.9,4.2c3.3,1.2,7.3,2.4,9,3.2c1,0.5,3.6,0.7,5.4,0.7
			c2.7,0.1,4,3.5,1.9,5.3c-2,1.7-5.7,1.7-8,1.7c-6.5,0-16.2-3.8-16.1-2.8c0,1,13.4,12.5,14.8,13.9c1.4,1.4,16.9,14.9,19,18.5
			c2.1,3.6,0.3,5.5-2.1,4.9c-2-0.5-24.7-17.5-24.7-17.5s-2.9-2.2-2.7-0.2c0.1,1.9,20.7,17.4,23.4,20.3c2.6,2.9,3.1,6.1-0.6,6.3
			c-4.5,0.3-25.4-17.6-25.4-17.6s-2.7-2.2-3.1-0.8c-0.5,1.4,17.2,14.3,18.3,16.3s0.1,4.8-3.3,4.3c-4-0.5-22.6-16.7-22.6-16.7
			s-1.8-0.8-1.7,0.3c0.1,1.1,14.4,13.2,14.9,15.7c0.4,2.1-1.5,2.5-1.5,2.5c-3.8,1.8-16.1-11.9-23.6-16.4
			c-7.5-4.5-13.8-13.1-23.3-17.4c-5.8-2.6-16-4.4-25.3-5.6c-6.3-0.5-13.3-1.2-20.7-1.8h0l0,0c-67-6.3-155.6-16.8-151.7-38.9
			C784.4,1216.5,795.8,1167.6,802.4,1144.1z"/>
		<path class="st4" d="M854.1,1876.4c0,0-2,36.5-2,36.6c-0.7,4.6-3.7,16.1-3.7,20.3c0,15.8,68.7-13.4,53.3-20.5
			c-1.4-0.6-8.7-5.4-9.2-10.8c-0.7-8.3-2.5-25.1-2.5-25.1L854.1,1876.4z"/>
		<path class="st5" d="M901.5,1912.7c0,0-16.1,4.8-24.4,6.1c-8.3,1.2-19.2-9-25-6.2c-6.4,3-5.8,32.9-5.8,32.9s86.1,5.2,110.4-2.8
			C966.4,1939.4,934.5,1924,901.5,1912.7z"/>
		<path class="st4" d="M702.7,1879.9c0,0-2,36.5-2,36.6c-0.7,4.6-3.7,16.1-3.7,20.3c0,15.8,68.7-13.4,53.3-20.5
			c-1.4-0.6-10.9-9-11.3-14.4c-0.7-8.3-0.3-21.5-0.3-21.5L702.7,1879.9z"/>
		<path class="st5" d="M750.2,1916.2c0,0-16.1,4.8-24.4,6.1c-8.3,1.2-19.2-9-25-6.2c-6.4,3-6.7,30.3-6.7,30.3s92,6.8,113.7,0.4
			C817.5,1943.9,783.2,1927.5,750.2,1916.2z"/>
		<path class="st6" d="M811.6,1352.9l29,12.8l61.1,299.1l-2.5,224.3l-49,1.2c0,0-22.8-196.2-22.8-211.4c0-15.2-105.5-266-105.5-266
			L811.6,1352.9z"/>
		<path class="st7" d="M789.2,1369.4c0,0-21.4,230.5-21.4,269.3S750.5,1895,750.5,1895l-49.1-0.3c0,0-3.5-66.3-8.8-163.8
			c-0.8-15.3,1.1-46.1,0-61.9c-7.6-113.7-22.7-220.7-15.5-263.2c1.2-6.8,3.3-24.7,7.6-29.2C716.8,1342.5,789.2,1369.4,789.2,1369.4z
			"/>
		<path class="st8" d="M849.1,1187.5l-59.4-4.1c0,0-2.9-54.4-2.9-80.4c0-31.5-9.4-78-5.7-77.1c10.3,2.5,28,12.2,36.3,23.9
			C845.8,1090.5,849.1,1187.5,849.1,1187.5z"/>
		<path class="st9" d="M708.3,1024.7c0,0-33.9,4.8-42.8,11.5c-10,7.6-21.2,24.5-21.2,24.5s41.6,201.6,41.7,235.5
			c0.1,26.2-9,90.7-9,90.7s125.7,8.1,173.3-11.1c0,0-15-76.6-15-96.8s-18-203.1-22.1-215.9c-3.7-11.6-10.5-32.4-33.5-37.6
			C756.8,1020.4,708.3,1024.7,708.3,1024.7z"/>
		<path class="st4" d="M717.6,970.4l-8.4,56.3c0,0,30.6,67,48.9,61.2c15.3-4.9,5.9-64.2,5.9-64.2s-8.4-31.8-5.9-47.8
			C760.7,960,717.6,970.4,717.6,970.4z"/>
		<path class="st10" d="M758.2,975.9c2.5-15.9-40.6-5.5-40.6-5.5l-0.7,4.7c1.3,3.1,2.8,5.8,4.7,7.8c9.6,10.5,24.7,16.9,37.7,17.4
			C757.9,991.7,757.1,982.5,758.2,975.9z"/>
		<g>
			<path class="st4" d="M710.5,890.8c-1.2-0.5-9.8,64.1,6.4,81.9c16.2,17.8,47.8,23.6,59.1,9.6c12.5-15.5,11.9-84.9-13.3-103.1
				C737.6,860.8,710.5,890.8,710.5,890.8z"/>
			<path class="st5" d="M753.2,844.6c-19.5,4-32.1,16.2-36.7,21.3c-8.8,1.1-20.9,6-33.3,27c-15.3,25.7-4,54.3,13.8,68.2
				c17.8,14,17.6,30.2,17.6,30.2l2.8-8.4c2.1-6.3,2.9-13,2.2-19.7c-0.4-4-1.3-8.3-2.9-11.8c-4.3-9.3,9.2-15.6,13-23.3
				c2.9-6,3-19.7,7.6-29.6l5.5-7.6c0,0,12.6-10,24.9-7.2C780,886.6,778.2,839.4,753.2,844.6z"/>
			<path class="st4" d="M728.8,939.5c0.1,7.9-3.4,14.3-7.9,14.4c-4.5,0.1-8.2-6.2-8.3-14.1c-0.1-7.9,3.4-14.3,7.9-14.4
				C724.9,925.3,728.6,931.7,728.8,939.5z"/>
		</g>
		<path class="st11" d="M654.1,1413.3c-0.3-0.5-0.5-1.1-0.7-1.7c-5.7-19-46.4-160.7-46.6-168.2c-0.1-6.8,21-150.1,21-150.1l42.1,24
			l-19.7,122c0.8,6.2,19.6,119.4,19.6,119.4s2.9,20.9,5.4,33.1c2.1,2.3,4.1,4.5,5.8,6.3c4,3.6,8,6.3,11.6,8.4
			c4.5,2.7,12.8,9.3,14.3,11.3c1.8,2.4,5.3,7.4,7.3,10.5s4.6,6.5,5.5,8.3c0.5,1.1,2.6,2.8,4.1,4c2.2,1.8,1.1,5.4-1.7,5.6
			c-2.7,0.2-5.8-2.1-7.7-3.6c-5.4-4.1-11.1-13.3-11.7-12.4c-0.6,0.9,3.5,18.8,3.8,20.9s4.9,22.9,4.5,27.3c-0.4,4.3-3.2,4.8-4.8,2.8
			c-1.4-1.7-9.8-30-9.8-30s-1.1-3.6-2.2-1.9c-1.1,1.7,6.5,27.5,7,31.5c0.4,4.1-1.2,7-4.4,4.9c-3.9-2.5-10.4-30.5-10.4-30.5
			s-0.9-3.5-2.1-2.6c-1.3,0.9,5.6,22.7,5.2,25c-0.3,2.3-2.8,4.1-5.4,1.6c-3-2.9-8.5-28-8.5-28s-1-1.8-1.6-0.8
			c-0.6,1,3.9,20,2.8,22.4c-0.9,2-2.8,1.2-2.8,1.2c-4.2-0.9-6.1-20-9.6-28.4c-3.5-8.4-3.5-19.5-8.7-29.1
			C655.5,1415.7,654.6,1414.3,654.1,1413.3z"/>
		<path class="st9" d="M671.8,1033c0,0-19.8,4.7-40.3,28.3c-18.6,21.5-30.4,141.7-30.4,141.7l64.3,10.7l5.1-58.2l17.2-26.6
			L671.8,1033z"/>
	</g>
	<g>
		<path class="st4" d="M845.2,1883.7c-1.1-7.9,1.4-21.4,7.5-42.6c-12.2,0-22.4-5.4-34.9-5.2c-3.4,19.9-8.7,52.7-8.7,52.7l-0.6,25.9
			l86.7,0.7c0,0-0.7,0.4-26.3-15.8C867.2,1898,846.3,1891.3,845.2,1883.7z"/>
		<path class="st12" d="M808.2,1921.1h89.5c3.3-0.3,4.1-3,3-4.7c-2.4-3.4-19.8-11.7-31.6-17.2c-20.6,2.2-56.8-6.3-60-11.1
			C803.5,1904,806.4,1920.7,808.2,1921.1z"/>
	</g>
	<g>
		<path class="st4" d="M737.2,1883.7c-1.1-7.9-3-17.8-0.2-44c-12.2,0-23.8-2.3-36.2-2.1c0,20.5,0.4,51,0.4,51l-0.6,25.9l86.7,0.7
			c0,0-0.7,0.4-26.3-15.8C759.2,1898,738.3,1891.3,737.2,1883.7z"/>
		<path class="st12" d="M700.2,1921.1h89.5c3.3-0.3,4.1-3,3-4.7c-2.4-3.4-19.8-11.7-31.6-17.2c-20.6,2.2-56.8-6.3-60-11.1
			C695.5,1904,698.4,1920.7,700.2,1921.1z"/>
	</g>
	<polygon class="st5" points="1079.8,1306.7 1084.2,1412.9 1134,1412.9 1094.5,1312.4 	"/>
	<path class="st5" d="M964.4,1202.9h224.3c2.4,0,4.3,1.9,4.3,4.3v172c0,2.4-1.9,4.3-4.3,4.3H964.4c-2.4,0-4.3-1.9-4.3-4.3v-172
		C960.1,1204.9,962,1202.9,964.4,1202.9z"/>
	<path class="st5" d="M1122.5,1195.9h76.9c1.1,0,2-0.9,2-2v-34.3c0-1.1-0.9-2-2-2h-76.9c-1.1,0-2,0.9-2,2v34.3
		C1120.5,1195,1121.4,1195.9,1122.5,1195.9z"/>
	
		<rect x="1156.1" y="1184.3" transform="matrix(-1 -1.224647e-16 1.224647e-16 -1 2318.6455 2392.3486)" class="st5" width="6.5" height="23.8"/>
	<polygon class="st9" points="569.1,1942.2 1295.3,1942.2 1346.5,1431.4 569.1,1431.4 	"/>
	<polygon class="st8" points="206.6,1942.2 569.1,1942.2 569.1,1431.4 182.7,1431.4 	"/>
	
		<rect x="140.2" y="1412.9" transform="matrix(-1 -1.224647e-16 1.224647e-16 -1 1502.1069 2844.2666)" class="st13" width="1221.8" height="18.5"/>
	<g>
		<path class="st14" d="M375.7,1840.7h3.6c1.2-12.2,3.5-25.7,7.7-39.8c15.8-53.4,8.9-60.3,35.6-93.6
			c26.7-33.4,28.7-102.5,28.7-102.5s12.8-78.6,0-113.1c-12.8-34.6-13.8-69.2-45-105.7c0,0-5.9,48.9-13.3,71.2
			c-7.4,22.2-14.4,43.5-9,96.8c5.5,53.4,8.9,57.8,10.2,71.6s-0.7,72.2,2.2,81.8c3,9.6-17.3,76.3-18.8,105
			C377.2,1820.8,376.4,1830.6,375.7,1840.7z"/>
		<path class="st12" d="M387.1,1840.7c5.1-11.9,14.2-23.7,30.1-30.8c41.5-18.5,69.5-18.1,88.8-62.6c19.3-44.5,19.3-105.2,25.9-117.8
			c0,0-17.8-3-35.6,28.9c-17.8,31.9-29.9,55.6-40.1,74.1c-10.3,18.5-25.1,13.3-37.7,27.4c-10.6,11.8-20.3,39.3-24,53.2
			c-1.2,4.5-3,8.9-5.3,13c-2.1,3.7-4.6,8.2-6.1,11.4c-0.3,0.7-0.7,1.8-1,3.2H387.1z"/>
		<path class="st14" d="M270,1629.9c-3,38,21.2,35.1,22.2,59.3c1,24.2,32.6,65.2,47.3,94.4c7.6,15.2,10.4,38.3,11.4,57.1h11.8
			c-4.6-47.5-23.8-80.5-35.3-107c-14.8-34.1-17-49.7-4.4-76.3c12.6-26.7-5.9-95.6,12-126.3c17.9-30.7,8.7-79,4.6-97.5
			c-4.1-18.5,0.4-31.1,4.1-50.7c3.7-19.5-4.1-47.9-4.1-47.9c-0.7,24.2-19.1,57.3-32.4,78.6c-13.3,21.2-38.5,79.1-35.6,105.2
			c3,26.2,1.5,28.2,1.5,28.2C263.5,1582,272.9,1591.8,270,1629.9z"/>
		<path class="st12" d="M340.6,1809.7c1.5,4.5,6.4,16.1,10.8,30.9h7.2c-3.3-18.8-9-40.6-18.5-53.2c-19.3-25.2-57.8-36.1-62.3-54.4
			c-4.4-18.3,0.5-73.1-27.7-103.8c0,0,4,34.1,0,43.2s-37.6,51.6-17.8,87.2s64.2,31.1,78.1,39
			C324.3,1806.8,338.1,1802.3,340.6,1809.7z"/>
		<path class="st12" d="M322.8,1645.7c-0.5,36.6,28.2,50.4,27.7,70.7c-0.5,20.3,5.9,42,11.4,58.3c3.4,10.3,1.5,39.1,0.9,66h8
			c2-19.8,4.2-48.4,3.5-61.1c-1-17.3,6.9-31.1,7.9-61.3c1-30.1,7.4-57.3-5.9-95.4c-13.3-38-10.9-83.5-66.7-125.5
			c0,0-9.9,44.5-2.5,68.7C314.4,1590.3,323.3,1609.1,322.8,1645.7z"/>
		<path class="st15" d="M322.8,1645.7c-0.5,36.6,28.2,50.4,27.7,70.7c-0.5,20.3,5.9,42,11.4,58.3c3.4,10.3,1.5,39.1,0.9,66h3.3
			c0.4-5.6,0.9-9.2,0.9-9.2l1.6-68.2c0,0-3.3-53.4-9.2-96.8c-5.9-43.5-49.9-169-49.9-169s-9.9,44.5-2.5,68.7
			C314.4,1590.3,323.3,1609.1,322.8,1645.7z"/>
		<path class="st16" d="M379.4,1809.4H374h-71.2c-5.2,0-9.1,4.9-7.9,10l27.9,117.6c0.9,3.7,4.1,6.2,7.9,6.2H374h5.3h43.3
			c3.8,0,7-2.6,7.9-6.2l27.9-117.6c1.2-5.1-2.7-10-7.9-10H379.4z"/>
	</g>
	
		<rect x="776.2" y="1103.6" transform="matrix(0.9856 -0.1692 0.1692 0.9856 -176.7238 150.4718)" class="st17" width="36.4" height="17"/>
	<rect x="1630" y="1642.6" class="st9" width="847.8" height="300"/>
	<rect x="2375.1" y="1642.6" class="st8" width="102.6" height="300"/>
	<rect x="1744.1" y="682.5" class="st18" width="721.9" height="960"/>
	
		<rect x="2466.1" y="682.5" transform="matrix(-1 -1.224647e-16 1.224647e-16 -1 4943.8096 2325.0996)" class="st19" width="11.6" height="960"/>
	
		<rect x="1618.4" y="1633.5" transform="matrix(-1 -1.224647e-16 1.224647e-16 -1 4106.7646 3285.5645)" class="st13" width="869.9" height="18.5"/>
	<rect x="1699.6" y="670" class="st7" width="820.7" height="113.2"/>
	<rect x="2442.9" y="670" class="st20" width="77.4" height="113.2"/>
	<rect x="2750.3" y="1642.6" class="st9" width="847.8" height="300"/>
	<rect x="3495.5" y="1642.6" class="st8" width="102.6" height="300"/>
	<rect x="2864.5" y="682.5" class="st18" width="721.9" height="960"/>
	
		<rect x="3586.5" y="682.5" transform="matrix(-1 -1.224647e-16 1.224647e-16 -1 7184.5273 2325.0996)" class="st19" width="11.6" height="960"/>
	<rect x="2940" y="1642.6" class="st8" width="11.6" height="300"/>
	<rect x="3265.2" y="1642.6" class="st8" width="11.6" height="300"/>
	
		<rect x="2738.8" y="1633.5" transform="matrix(-1 -1.224647e-16 1.224647e-16 -1 6347.4824 3285.5645)" class="st13" width="869.9" height="18.5"/>
	<rect x="2820" y="670" class="st7" width="820.7" height="113.2"/>
	<rect x="3563.2" y="670" class="st20" width="77.4" height="113.2"/>
	
		<rect x="2809.3" y="774.2" transform="matrix(-1 -1.224647e-16 1.224647e-16 -1 6458.708 1566.8232)" class="st13" width="840" height="18.5"/>
	
		<rect x="1690" y="774.2" transform="matrix(-1 -1.224647e-16 1.224647e-16 -1 4219.9258 1566.8232)" class="st13" width="840" height="18.5"/>
	<g>
		<path class="st7" d="M1855.9,1119.3h-18.7c-2.6,0-4.7-2.1-4.7-4.7V839.8c0-2.6,2.1-4.7,4.7-4.7h18.7c2.6,0,4.7,2.1,4.7,4.7v274.8
			C1860.6,1117.2,1858.5,1119.3,1855.9,1119.3z"/>
		<path class="st13" d="M1900.4,910.4h-107.8c-3.9,0-7.1-3.2-7.1-7.1v-51.7c0-3.9,3.2-7.1,7.1-7.1h107.8c3.9,0,7.1,3.2,7.1,7.1v51.7
			C1907.5,907.2,1904.4,910.4,1900.4,910.4z"/>
		<path class="st13" d="M1832.5,974.6v138.8c0,3.3,2.6,5.9,5.9,5.9h16.3c3.3,0,5.9-2.6,5.9-5.9V942.6L1832.5,974.6z"/>
	</g>
	<g>
		<path class="st7" d="M2027.6,1119.3h-18.7c-2.6,0-4.7-2.1-4.7-4.7V839.8c0-2.6,2.1-4.7,4.7-4.7h18.7c2.6,0,4.7,2.1,4.7,4.7v274.8
			C2032.3,1117.2,2030.2,1119.3,2027.6,1119.3z"/>
		<path class="st13" d="M2072.2,910.4h-107.8c-3.9,0-7.1-3.2-7.1-7.1v-51.7c0-3.9,3.2-7.1,7.1-7.1h107.8c3.9,0,7.1,3.2,7.1,7.1v51.7
			C2079.3,907.2,2076.1,910.4,2072.2,910.4z"/>
		<path class="st13" d="M2004.2,974.6v138.8c0,3.3,2.6,5.9,5.9,5.9h16.3c3.3,0,5.9-2.6,5.9-5.9V942.6L2004.2,974.6z"/>
	</g>
	<g>
		<path class="st21" d="M1857.7,1347.5c-0.8,0.5-1.7,0.9-2.6,1.2c-0.8,0.3-1.1,0-1.3-0.8c-0.1-0.3-0.1-0.7-0.1-1c0-1,0-2.1,0.1-3.1
			c0.1-3.7,0.2-7.3,0.2-11c0-0.8,0-1.7-0.8-2.3c-3.1-2-6.1-4.1-9.1-6.2c-0.6-0.4-1-0.5-1.6-0.2c-2.4,1.3-4.8,2.6-7.1,3.9
			c-0.9,0.5-1.7,1.2-2.5,1.9c-1.5,1.5-2.3,3.4-2.2,5.5c0.2,3.8-0.3,7.5-0.4,11.3c-0.1,1.5-0.5,1.7-1.8,0.9c-2.1-1.4-4-3-5.7-4.9
			c-1.9-2.1-3.4-4.5-4.2-7.2c-2.1-6.4-1.6-12.6,1.1-18.7c2.3-5,5.9-8.8,10.9-11.2c1.9-0.9,2.8-2.5,2.9-4.6c0.1-2.6,0.1-5.3,0.2-7.9
			c0.3-8.3,0.6-16.5,0.8-24.8c0.4-15.2,0.8-30.4,1.2-45.6c0.1-4.5,0.1-9,0.1-13.5c0-2.9-1.3-5.1-3.7-6.7c-3.5-2.3-6-5.4-7.7-9.2
			c-2.8-6.4-3.1-12.9-0.7-19.4c1.7-4.7,4.5-8.6,9-11c1.1-0.6,2.2-0.9,3.4-1.3c0.7-0.2,0.9,0.1,0.9,0.7c-0.1,2.3-0.4,4.6-0.4,6.8
			c-0.1,2.2-0.1,4.4,0,6.7c0.1,1.8,0.8,3.4,2.3,4.5c2.4,1.8,4.9,3.5,7.4,5.1c2,1.2,4.1,1.1,6-0.1c1.5-0.9,3-1.8,4.4-2.8
			c2.3-1.7,3.7-3.9,3.7-6.8c0-1.4,0.1-2.8,0.3-4.1c0.3-2.1,0.6-4.1,1-6.2c0-0.3,0.1-0.5,0.2-0.8c0.2-0.4,0.5-0.5,0.9-0.3
			c0.3,0.2,0.6,0.4,0.9,0.7c2,1.9,3.9,4,5.2,6.5c0.2,0.3,0.4,0.6,0.6,0.9c2.8,4.4,4,9.1,3.3,14.3c-1.2,8.3-5.6,14.4-13.1,18.1
			c-1.5,0.8-2.4,1.9-2.4,3.6c-0.1,3.1-0.1,6.1-0.2,9.2c-0.4,14.2-0.7,28.3-1.1,42.5c-0.2,10.2-0.4,20.4-0.6,30.5
			c-0.1,4-0.1,8.1-0.2,12.1c0,1.7,0.8,2.9,2.3,3.6c4.2,1.9,7,5.1,8.9,9.1c2.5,5.2,3.3,10.6,2.2,16.3
			C1867.1,1338.7,1863.9,1344.1,1857.7,1347.5z"/>
		<path class="st21" d="M1944.9,1326.1c-0.7,0.4-1.5,0.8-2.3,1c-0.7,0.3-1,0-1.1-0.7c-0.1-0.3-0.1-0.6-0.1-0.9c0-0.9,0-1.8,0-2.7
			c0.1-3.2,0.2-6.5,0.2-9.7c0-0.7,0-1.5-0.7-2c-2.7-1.8-5.4-3.6-8.1-5.4c-0.5-0.3-0.9-0.4-1.4-0.1c-2.1,1.2-4.2,2.3-6.3,3.5
			c-0.8,0.5-1.5,1.1-2.2,1.7c-1.3,1.3-2,3-1.9,4.8c0.1,3.3-0.2,6.6-0.4,10c-0.1,1.3-0.5,1.5-1.5,0.8c-1.8-1.2-3.5-2.6-5-4.3
			c-1.6-1.9-3-3.9-3.7-6.3c-1.8-5.6-1.4-11.1,1-16.5c2-4.4,5.2-7.8,9.6-9.9c1.7-0.8,2.5-2.2,2.5-4c0.1-2.3,0.1-4.7,0.2-7
			c0.2-7.3,0.5-14.6,0.7-21.9c0.4-13.4,0.7-26.9,1.1-40.3c0.1-4,0.1-8,0.1-11.9c0-2.6-1.1-4.5-3.3-5.9c-3.1-2-5.3-4.8-6.8-8.1
			c-2.5-5.6-2.8-11.4-0.6-17.2c1.5-4.1,4-7.6,7.9-9.8c0.9-0.5,2-0.8,3-1.1c0.6-0.2,0.8,0.1,0.8,0.7c-0.1,2-0.3,4-0.4,6
			c-0.1,2-0.1,3.9,0,5.9c0.1,1.6,0.7,3,2,3.9c2.1,1.6,4.3,3.1,6.6,4.5c1.7,1.1,3.6,1,5.3,0c1.3-0.8,2.7-1.6,3.9-2.5
			c2-1.5,3.2-3.4,3.3-6c0-1.2,0.1-2.4,0.2-3.6c0.2-1.8,0.6-3.6,0.9-5.5c0-0.2,0.1-0.5,0.2-0.7c0.1-0.4,0.4-0.5,0.8-0.3
			c0.3,0.2,0.6,0.4,0.8,0.6c1.8,1.7,3.4,3.6,4.6,5.8c0.2,0.3,0.3,0.5,0.5,0.8c2.5,3.9,3.5,8.1,2.9,12.6c-1.1,7.3-4.9,12.7-11.6,15.9
			c-1.4,0.7-2.1,1.7-2.1,3.2c-0.1,2.7-0.1,5.4-0.2,8.1c-0.3,12.5-0.7,25-0.9,37.5c-0.2,9-0.3,18-0.5,26.9c-0.1,3.6-0.1,7.1-0.2,10.7
			c0,1.5,0.7,2.6,2,3.2c3.7,1.6,6.2,4.5,7.9,8.1c2.2,4.6,2.9,9.4,1.9,14.4C1953.2,1318.3,1950.3,1323.1,1944.9,1326.1z"/>
		<path class="st21" d="M2023.1,1294.2c-0.6,0.3-1.2,0.6-1.8,0.8c-0.5,0.2-0.8,0-0.9-0.6c0-0.2-0.1-0.5-0.1-0.7c0-0.7,0-1.5,0-2.2
			c0.1-2.6,0.1-5.2,0.2-7.8c0-0.6,0-1.2-0.6-1.6c-2.2-1.5-4.3-2.9-6.5-4.4c-0.4-0.3-0.7-0.3-1.2-0.1c-1.7,0.9-3.4,1.8-5.1,2.8
			c-0.6,0.4-1.2,0.9-1.8,1.4c-1.1,1.1-1.6,2.4-1.6,3.9c0.1,2.7-0.2,5.3-0.3,8c-0.1,1.1-0.4,1.2-1.2,0.6c-1.5-1-2.9-2.1-4-3.5
			c-1.3-1.5-2.4-3.2-3-5.1c-1.5-4.5-1.2-9,0.8-13.3c1.6-3.6,4.2-6.3,7.7-8c1.4-0.7,2-1.8,2-3.2c0.1-1.9,0.1-3.8,0.1-5.6
			c0.2-5.9,0.4-11.7,0.6-17.6c0.3-10.8,0.6-21.6,0.9-32.5c0.1-3.2,0.1-6.4,0.1-9.6c0-2.1-0.9-3.6-2.7-4.8c-2.5-1.6-4.3-3.8-5.5-6.5
			c-2-4.5-2.2-9.2-0.5-13.8c1.2-3.3,3.2-6.1,6.4-7.9c0.7-0.4,1.6-0.7,2.4-0.9c0.5-0.1,0.7,0.1,0.6,0.5c-0.1,1.6-0.3,3.2-0.3,4.9
			c-0.1,1.6,0,3.2,0,4.7c0,1.3,0.6,2.4,1.6,3.2c1.7,1.3,3.5,2.5,5.3,3.6c1.4,0.9,2.9,0.8,4.3,0c1.1-0.6,2.1-1.3,3.1-2
			c1.6-1.2,2.6-2.8,2.6-4.9c0-1,0.1-2,0.2-2.9c0.2-1.5,0.5-2.9,0.7-4.4c0-0.2,0.1-0.4,0.1-0.5c0.1-0.3,0.4-0.4,0.6-0.2
			c0.2,0.1,0.5,0.3,0.6,0.5c1.4,1.4,2.8,2.9,3.7,4.6c0.1,0.2,0.3,0.4,0.4,0.7c2,3.1,2.9,6.5,2.3,10.2c-0.9,5.9-4,10.2-9.3,12.9
			c-1.1,0.5-1.7,1.4-1.7,2.6c-0.1,2.2-0.1,4.3-0.2,6.5c-0.3,10.1-0.5,20.1-0.8,30.2c-0.2,7.2-0.3,14.5-0.4,21.7
			c-0.1,2.9-0.1,5.8-0.1,8.6c0,1.2,0.5,2.1,1.6,2.6c3,1.3,5,3.6,6.3,6.5c1.8,3.7,2.3,7.6,1.6,11.6
			C2029.7,1287.9,2027.5,1291.8,2023.1,1294.2z"/>
		<path class="st21" d="M2092.9,1269.2c-0.5,0.3-1,0.5-1.5,0.7c-0.4,0.2-0.7,0-0.7-0.5c0-0.2,0-0.4,0-0.6c0-0.6,0-1.2,0-1.8
			c0-2.1,0.1-4.2,0.1-6.4c0-0.5,0-1-0.5-1.3c-1.8-1.2-3.5-2.4-5.3-3.6c-0.3-0.2-0.6-0.3-0.9-0.1c-1.4,0.8-2.8,1.5-4.1,2.3
			c-0.5,0.3-1,0.7-1.4,1.1c-0.9,0.9-1.3,1.9-1.3,3.2c0.1,2.2-0.1,4.3-0.3,6.5c0,0.9-0.3,1-1,0.5c-1.2-0.8-2.3-1.7-3.3-2.8
			c-1.1-1.2-1.9-2.6-2.4-4.1c-1.2-3.7-0.9-7.3,0.6-10.8c1.3-2.9,3.4-5.1,6.3-6.5c1.1-0.5,1.6-1.4,1.7-2.6c0.1-1.5,0.1-3.1,0.1-4.6
			c0.1-4.8,0.3-9.5,0.5-14.3c0.2-8.8,0.5-17.6,0.7-26.4c0.1-2.6,0-5.2,0.1-7.8c0-1.7-0.8-3-2.2-3.9c-2-1.3-3.5-3.1-4.5-5.3
			c-1.6-3.7-1.8-7.5-0.4-11.2c1-2.7,2.6-5,5.2-6.4c0.6-0.3,1.3-0.5,2-0.8c0.4-0.1,0.5,0,0.5,0.4c-0.1,1.3-0.2,2.6-0.3,4
			c0,1.3,0,2.6,0,3.9c0,1,0.5,2,1.3,2.6c1.4,1,2.8,2,4.3,3c1.1,0.7,2.3,0.7,3.5,0c0.9-0.5,1.7-1,2.5-1.6c1.3-1,2.1-2.2,2.1-3.9
			c0-0.8,0.1-1.6,0.2-2.4c0.2-1.2,0.4-2.4,0.6-3.6c0-0.1,0.1-0.3,0.1-0.4c0.1-0.2,0.3-0.3,0.5-0.2c0.2,0.1,0.4,0.3,0.5,0.4
			c1.2,1.1,2.2,2.3,3,3.8c0.1,0.2,0.2,0.4,0.3,0.5c1.6,2.5,2.3,5.3,1.9,8.3c-0.7,4.8-3.2,8.3-7.6,10.5c-0.9,0.4-1.4,1.1-1.4,2.1
			c0,1.8-0.1,3.5-0.1,5.3c-0.2,8.2-0.4,16.4-0.6,24.6c-0.1,5.9-0.2,11.8-0.3,17.7c0,2.3-0.1,4.7-0.1,7c0,1,0.4,1.7,1.3,2.1
			c2.4,1.1,4,2.9,5.2,5.3c1.4,3,1.9,6.1,1.3,9.4C2098.4,1264.1,2096.5,1267.2,2092.9,1269.2z"/>
		<path class="st21" d="M2159.2,1247.2c-0.4,0.2-0.8,0.4-1.2,0.5c-0.4,0.1-0.5,0-0.6-0.4c0-0.2,0-0.3,0-0.5c0-0.5,0-0.9,0-1.4
			c0-1.7,0.1-3.4,0.1-5c0-0.4,0-0.8-0.4-1c-1.4-0.9-2.8-1.9-4.2-2.8c-0.3-0.2-0.5-0.2-0.7-0.1c-1.1,0.6-2.2,1.2-3.3,1.8
			c-0.4,0.2-0.8,0.6-1.1,0.9c-0.7,0.7-1.1,1.5-1,2.5c0.1,1.7-0.1,3.4-0.2,5.2c0,0.7-0.2,0.8-0.8,0.4c-1-0.6-1.8-1.4-2.6-2.2
			c-0.9-1-1.5-2.1-1.9-3.3c-1-2.9-0.7-5.8,0.5-8.6c1-2.3,2.7-4,5-5.2c0.9-0.4,1.3-1.1,1.3-2.1c0-1.2,0.1-2.4,0.1-3.6
			c0.1-3.8,0.3-7.6,0.4-11.4c0.2-7,0.4-14,0.6-20.9c0-2.1,0-4.1,0-6.2c0-1.3-0.6-2.3-1.7-3.1c-1.6-1-2.8-2.5-3.5-4.2
			c-1.3-2.9-1.4-5.9-0.3-8.9c0.8-2.1,2.1-3.9,4.1-5.1c0.5-0.3,1-0.4,1.6-0.6c0.3-0.1,0.4,0,0.4,0.3c-0.1,1-0.2,2.1-0.2,3.1
			c0,1,0,2,0,3.1c0,0.8,0.4,1.6,1,2c1.1,0.8,2.2,1.6,3.4,2.3c0.9,0.6,1.9,0.5,2.8,0c0.7-0.4,1.4-0.8,2-1.3c1-0.8,1.7-1.8,1.7-3.1
			c0-0.6,0-1.3,0.1-1.9c0.1-0.9,0.3-1.9,0.5-2.8c0-0.1,0.1-0.2,0.1-0.3c0.1-0.2,0.2-0.3,0.4-0.1c0.1,0.1,0.3,0.2,0.4,0.3
			c0.9,0.9,1.8,1.8,2.4,3c0.1,0.1,0.2,0.3,0.3,0.4c1.3,2,1.8,4.2,1.5,6.6c-0.6,3.8-2.6,6.6-6,8.3c-0.7,0.3-1.1,0.9-1.1,1.7
			c0,1.4-0.1,2.8-0.1,4.2c-0.2,6.5-0.3,13-0.5,19.5c-0.1,4.7-0.2,9.3-0.3,14c0,1.9-0.1,3.7-0.1,5.6c0,0.8,0.4,1.3,1.1,1.6
			c1.9,0.9,3.2,2.3,4.1,4.2c1.1,2.4,1.5,4.9,1,7.5C2163.5,1243.2,2162.1,1245.7,2159.2,1247.2z"/>
	</g>
	<path class="st21" d="M3548.1,1548.5c-1,0.6-2.1,1.1-3.3,1.5c-1,0.4-1.4,0-1.6-1c-0.1-0.4-0.1-0.9-0.1-1.3c0-1.3,0-2.6,0-3.9
		c0-4.6,0.1-9.3,0.1-13.9c0-1.1,0-2.2-1.1-2.9c-3.9-2.5-7.8-5.1-11.7-7.7c-0.7-0.5-1.3-0.6-2-0.2c-3,1.7-6,3.3-8.9,5.1
		c-1.1,0.7-2.2,1.5-3.1,2.5c-1.9,1.9-2.9,4.3-2.7,7c0.3,4.8-0.2,9.5-0.4,14.3c-0.1,1.9-0.6,2.2-2.2,1.1c-2.7-1.7-5.1-3.7-7.3-6.1
		c-2.4-2.7-4.3-5.6-5.5-9c-2.7-8-2.3-15.9,1.1-23.7c2.8-6.4,7.3-11.2,13.6-14.4c2.4-1.2,3.5-3.2,3.6-5.8c0.1-3.3,0.1-6.7,0.1-10
		c0.2-10.4,0.5-20.9,0.6-31.3c0.3-19.2,0.6-38.5,0.8-57.7c0.1-5.7,0-11.4-0.1-17.1c0-3.7-1.7-6.5-4.8-8.4c-4.4-2.8-7.7-6.7-9.9-11.5
		c-3.7-8-4.2-16.3-1.2-24.6c2.1-5.9,5.6-10.9,11.2-14.1c1.3-0.7,2.8-1.2,4.3-1.7c0.8-0.3,1.2,0.1,1.1,0.9c-0.1,2.9-0.4,5.8-0.5,8.7
		c-0.1,2.8,0,5.6,0.1,8.4c0.1,2.3,1.1,4.3,2.9,5.6c3.1,2.2,6.2,4.4,9.5,6.4c2.5,1.5,5.1,1.4,7.6-0.2c1.9-1.1,3.8-2.3,5.5-3.6
		c2.9-2.1,4.6-5,4.6-8.7c0-1.7,0.1-3.5,0.3-5.2c0.3-2.6,0.8-5.2,1.2-7.8c0-0.3,0.1-0.7,0.3-1c0.2-0.5,0.6-0.7,1.1-0.4
		c0.4,0.2,0.8,0.5,1.2,0.9c2.6,2.4,5,5,6.7,8.2c0.2,0.4,0.5,0.8,0.7,1.2c3.6,5.5,5.2,11.5,4.3,18c-1.4,10.5-6.8,18.2-16.3,23
		c-1.9,1-3,2.5-3,4.6c-0.1,3.9-0.1,7.7-0.1,11.6c-0.2,17.9-0.5,35.8-0.7,53.7c-0.1,12.9-0.2,25.7-0.3,38.6c0,5.1-0.1,10.2-0.1,15.4
		c0,2.1,1,3.7,3,4.5c5.3,2.3,8.9,6.3,11.4,11.4c3.2,6.5,4.3,13.4,3,20.6C3559.8,1537.1,3555.8,1544.1,3548.1,1548.5z"/>
	<g>
		<path class="st5" d="M2195.5,926l1.5-64.9l-1.7,0c-2,0-3.5-1.7-3.5-3.6l0.1-4.3l-3.5-0.4c-19.5-0.7-40.5,15.4-42.2,14.4
			c-1.7-0.9,5.5-13.3,5.5-13.3c14.6-21.4,43.1-21.7,53-21.1c1.9,0.1,3.4,1.7,3.3,3.6l-0.1,5.1l10,0.2l0.1-5.1c0-1.6,1.4-2.9,3-2.8
			l7.4,0.2c1.6,0,2.9,1.4,2.8,3l-0.5,20.4c0,1.6-1.4,2.9-3,2.8l-7.4-0.2c-1.6,0-2.9-1.4-2.8-3l0.1-6.1l-10-0.2l-0.2,7
			c0,1.7-1.3,3.2-3,3.4l-1.5,64.9L2195.5,926z"/>
		<path class="st7" d="M2208.1,1010.2l2-85.1c0-1.2-0.9-2.1-2.1-2.2l-15.7-0.4c-1.2,0-2.1,0.9-2.2,2.1l-2,85.1
			c0,1.2,0.9,2.1,2.1,2.2l15.7,0.4C2207.1,1012.3,2208.1,1011.4,2208.1,1010.2z"/>
	</g>
	<g>
		<path class="st5" d="M2299.6,908.8l1.2-53.4l-1.4,0c-1.6,0-2.9-1.4-2.9-3l0.1-3.5l-2.9-0.3c-16-0.6-33.3,12.6-34.8,11.9
			c-1.4-0.8,4.6-10.9,4.6-10.9c12-17.6,35.5-17.8,43.6-17.4c1.6,0.1,2.8,1.4,2.7,3l-0.1,4.2l8.2,0.2l0.1-4.2c0-1.3,1.1-2.4,2.4-2.3
			l6.1,0.1c1.3,0,2.4,1.1,2.3,2.4l-0.4,16.8c0,1.3-1.1,2.4-2.4,2.3l-6.1-0.1c-1.3,0-2.4-1.1-2.3-2.4l0.1-5l-8.2-0.2l-0.1,5.8
			c0,1.4-1.1,2.6-2.5,2.8l-1.2,53.4L2299.6,908.8z"/>
		<path class="st7" d="M2310,977.7l1.6-69.2c0-1.2-0.9-2.1-2.1-2.2l-12.2-0.3c-1.2,0-2.1,0.9-2.2,2.1l-1.6,69.2
			c0,1.2,0.9,2.1,2.1,2.2l12.2,0.3C2309,979.7,2309.9,978.8,2310,977.7z"/>
	</g>
	<g>
		<path class="st5" d="M2383.2,891.2l1-41.3l-1.1,0c-1.3,0-2.2-1.1-2.2-2.3l0.1-2.7l-2.2-0.2c-12.4-0.5-25.8,9.8-26.9,9.2
			c-1.1-0.6,3.5-8.4,3.5-8.4c9.3-13.6,27.5-13.8,33.7-13.4c1.2,0.1,2.2,1.1,2.1,2.3l-0.1,3.2l6.3,0.1l0.1-3.2c0-1,0.9-1.8,1.9-1.8
			l4.7,0.1c1,0,1.8,0.9,1.8,1.9l-0.3,13c0,1-0.9,1.8-1.9,1.8l-4.7-0.1c-1,0-1.8-0.9-1.8-1.9l0.1-3.9l-6.3-0.1l-0.1,4.5
			c0,1.1-0.8,2-1.9,2.2l-1,41.3L2383.2,891.2z"/>
		<path class="st7" d="M2391.3,944l1.2-52.6c0-1.2-0.9-2.1-2.1-2.2l-8.5-0.2c-1.2,0-2.1,0.9-2.2,2.1l-1.2,52.6
			c0,1.2,0.9,2.1,2.1,2.2l8.5,0.2C2390.3,946.1,2391.2,945.2,2391.3,944z"/>
	</g>
	<g>
		<g>
			<g>
				<path class="st5" d="M2193.6,1112.6L2193.6,1112.6c-4.4,0-7.9-3.5-7.9-7.9v-54.2h15.8v54.2
					C2201.5,1109,2197.9,1112.6,2193.6,1112.6z"/>
				<polygon class="st22" points="2199.2,1055.4 2201.5,1050.5 2185.7,1050.5 2187.5,1055.4 				"/>
			</g>
			<rect x="2190.5" y="1107.9" class="st5" width="6.4" height="18"/>
			<path class="st7" d="M2204.1,1176.2v-50.8c0-4.2-3.4-7.7-7.7-7.7h-5.8c-4.2,0-7.7,3.4-7.7,7.7v50.8L2204.1,1176.2z"/>
			<path class="st13" d="M2183,1153.7v21.2c0,0.7,0.6,1.3,1.3,1.3l18.5,0c0.7,0,1.3-0.6,1.3-1.3v-49.8c0-2-0.8-3.8-2.1-5.1
				L2183,1153.7z"/>
		</g>
		<g>
			<g>
				<path class="st5" d="M2241.9,1095.1L2241.9,1095.1c-4.4,0-7.9-3.5-7.9-7.9v-54.2h15.8v54.2
					C2249.7,1091.6,2246.2,1095.1,2241.9,1095.1z"/>
				<polygon class="st22" points="2247.4,1037.9 2249.7,1033.1 2234,1033.1 2235.8,1037.9 				"/>
			</g>
			<rect x="2238.7" y="1090.4" class="st5" width="6.4" height="18"/>
			<path class="st10" d="M2252.4,1158.8V1108c0-4.2-3.4-7.7-7.7-7.7l-5.8,0c-4.2,0-7.7,3.4-7.7,7.7l0,50.8L2252.4,1158.8z"/>
			<path class="st13" d="M2231.3,1136.3v21.2c0,0.7,0.6,1.3,1.3,1.3l18.5,0c0.7,0,1.3-0.6,1.3-1.3v-49.8c0-2-0.8-3.8-2.1-5.1
				L2231.3,1136.3z"/>
		</g>
		<g>
			<g>
				<path class="st5" d="M2290.2,1071.9L2290.2,1071.9c-4.4,0-7.9-3.5-7.9-7.9v-54.2h15.8v54.2
					C2298,1068.4,2294.5,1071.9,2290.2,1071.9z"/>
				<polygon class="st22" points="2295.7,1014.7 2298,1009.8 2282.3,1009.8 2284.1,1014.7 				"/>
			</g>
			<rect x="2287" y="1067.2" class="st5" width="6.4" height="18"/>
			<path class="st7" d="M2300.7,1135.6v-50.8c0-4.2-3.4-7.7-7.7-7.7h-5.8c-4.2,0-7.7,3.4-7.7,7.7l0,50.8L2300.7,1135.6z"/>
			<path class="st13" d="M2279.6,1113.1l0,21.2c0,0.7,0.6,1.3,1.3,1.3l18.5,0c0.7,0,1.3-0.6,1.3-1.3v-49.8c0-2-0.8-3.8-2.1-5.1
				L2279.6,1113.1z"/>
		</g>
		<g>
			<g>
				<path class="st5" d="M2338.4,1054.6L2338.4,1054.6c-4.4,0-7.9-3.5-7.9-7.9v-54.2h15.8v54.2
					C2346.3,1051,2342.8,1054.6,2338.4,1054.6z"/>
				<polygon class="st22" points="2344,997.4 2346.3,992.5 2330.6,992.5 2332.4,997.4 				"/>
			</g>
			<rect x="2335.3" y="1049.9" class="st5" width="6.4" height="18"/>
			<path class="st10" d="M2349,1118.2v-50.8c0-4.2-3.4-7.7-7.7-7.7h-5.8c-4.2,0-7.7,3.4-7.7,7.7l0,50.8L2349,1118.2z"/>
			<path class="st13" d="M2327.9,1095.7l0,21.2c0,0.7,0.6,1.3,1.3,1.3l18.5,0c0.7,0,1.3-0.6,1.3-1.3v-49.8c0-2-0.8-3.8-2.1-5.1
				L2327.9,1095.7z"/>
		</g>
		<g>
			<g>
				<path class="st5" d="M2386.7,1033.8L2386.7,1033.8c-4.4,0-7.9-3.5-7.9-7.9v-54.2h15.8v54.2
					C2394.6,1030.2,2391.1,1033.8,2386.7,1033.8z"/>
				<polygon class="st22" points="2392.3,976.6 2394.6,971.7 2378.9,971.7 2380.7,976.6 				"/>
			</g>
			<rect x="2383.6" y="1029.1" class="st5" width="6.4" height="18"/>
			<path class="st7" d="M2397.3,1097.4v-50.8c0-4.2-3.4-7.7-7.7-7.7l-5.8,0c-4.2,0-7.7,3.4-7.7,7.7v50.8L2397.3,1097.4z"/>
			<path class="st13" d="M2376.2,1074.9v21.2c0,0.7,0.6,1.3,1.3,1.3l18.5,0c0.7,0,1.3-0.6,1.3-1.3v-49.8c0-2-0.8-3.8-2.1-5.1
				L2376.2,1074.9z"/>
		</g>
	</g>
	<g>
		<path class="st21" d="M1782.4,1481.4l-0.1,44.2l8.4-6.7l4.7,9.3l0.1,0l8.6-6.8l4.8,9.4l8.6-6.8l4.8,9.4l8.6-6.8l4.8,9.4l8.6-6.8
			l4.8,9.4l8.6-6.8l4.8,9.4l8.6-6.8l4.8,9.4l8.6-6.8l4.8,9.4l8.6-6.8l4.8,9.4l8.6-6.8l4.8,9.4l8.6-6.8l4.8,9.4l8.6-6.8l4.8,9.4
			l8.6-6.8l4.8,9.4l8.6-6.8l4.8,9.4l8.6-6.8l4.8,9.4l8.6-6.8l4.8,9.4l8.6-6.8l4.8,9.4l8.6-6.8l4.8,9.4l8.6-6.8l4.8,9.4l8.6-6.8
			l4.8,9.4l8.6-6.8l4.8,9.4l8.6-6.8l4.8,9.4l8.6-6.8l4.8,9.4l8.6-6.8l4.8,9.4l8.6-6.8l4.8,9.4l8.6-6.8l4.8,9.4l8.6-6.8l4.8,9.4
			l8.6-6.8l4.8,9.4l8.6-6.8l4.8,9.4l8.6-6.8l4.8,9.4l8.6-6.8l4.8,9.4l8.6-6.8l4.8,9.4l8.6-6.8l4.8,9.4l7.7-6.1v-121.9H1782.4z
			 M1800.6,1504.2c-3.3,0-6-2.7-6-6s2.7-6,6-6s6,2.7,6,6S1804,1504.2,1800.6,1504.2z"/>
		<path class="st13" d="M2308.6,1490.9v-19.7c0-4-3.5-7.1-7.4-6.6l-93,10.5c-3.4,0.4-5.9,3.2-5.9,6.6v97.3c0,3.2,2.3,6,5.4,6.6
			l93,18.2c4.1,0.8,8-2.4,8-6.6V1581c0-3.1-2.1-5.8-5.1-6.5l-1.7-0.4c-3-0.7-5.1-3.4-5.1-6.5v-63.4c0-3.4,2.6-6.3,6-6.7l0,0
			C2306,1497.2,2308.6,1494.3,2308.6,1490.9z M2273.5,1567.6l-33-7.3c-3.1-0.7-5.3-3.4-5.3-6.5v-42.2c0-3.4,2.5-6.2,5.8-6.6l33-4.2
			c4-0.5,7.5,2.6,7.5,6.6v53.7C2281.6,1565.3,2277.6,1568.5,2273.5,1567.6z"/>
	</g>
	<g>
		<path class="st21" d="M2997.4,1479.2l-0.1,38.3l7.3-5.8l4.1,8.1l0.1,0l7.5-5.9l4.1,8.1l7.5-5.9l4.1,8.1l7.5-5.9l4.1,8.1l7.5-5.9
			l4.1,8.1l7.5-5.9l4.1,8.1l7.5-5.9l4.1,8.1l7.5-5.9l4.1,8.1l7.5-5.9l4.1,8.1l7.5-5.9l4.1,8.1l7.5-5.9l4.1,8.1l7.5-5.9l4.1,8.1
			l7.5-5.9l4.1,8.1l7.5-5.9l4.1,8.1l7.5-5.9l4.1,8.1l7.5-5.9l4.1,8.1l7.5-5.9l4.1,8.1l7.5-5.9l4.1,8.1l7.5-5.9l4.1,8.1l7.5-5.9
			l4.1,8.1l7.5-5.9l4.1,8.1l7.5-5.9l4.1,8.1l7.5-5.9l4.1,8.1l7.5-5.9l4.1,8.1l7.5-5.9l4.1,8.1l7.5-5.9l4.1,8.1l7.5-5.9l4.1,8.1
			l7.5-5.9l4.1,8.1l7.5-5.9l4.1,8.1l7.5-5.9l4.1,8.1l7.5-5.9l4.1,8.1l7.5-5.9l4.1,8.1l7.5-5.9l4.1,8.1l6.7-5.3v-105.7H2997.4z
			 M3013.2,1499c-2.9,0-5.2-2.3-5.2-5.2s2.3-5.2,5.2-5.2s5.2,2.3,5.2,5.2S3016.1,1499,3013.2,1499z"/>
		<path class="st7" d="M3453.5,1487.5v-17.1c0-3.5-3-6.2-6.4-5.8l-80.6,9.1c-2.9,0.3-5.1,2.8-5.1,5.8v84.3c0,2.8,2,5.2,4.7,5.7
			l80.6,15.8c3.6,0.7,6.9-2,6.9-5.7v-14c0-2.7-1.8-5-4.5-5.6l-1.5-0.4c-2.6-0.6-4.5-3-4.5-5.6v-54.9c0-3,2.2-5.5,5.2-5.8l0,0
			C3451.3,1493,3453.5,1490.5,3453.5,1487.5z M3423.1,1554l-28.6-6.3c-2.7-0.6-4.6-2.9-4.6-5.7v-36.6c0-2.9,2.2-5.4,5.1-5.8
			l28.6-3.6c3.5-0.4,6.5,2.3,6.5,5.8v46.5C3430.1,1552,3426.7,1554.8,3423.1,1554z"/>
	</g>
	<g>
		<g>
			
				<rect x="2368.6" y="1372.5" transform="matrix(6.123234e-17 -1 1 6.123234e-17 1019.2261 3783.6519)" class="st21" width="65.6" height="19.4"/>
			<path class="st7" d="M2393.5,1351h8.6v63.8h-8.6c-3.5,0-6.3,2.8-6.3,6.3V1605h47.8v-443.8h-47.8v183.6
				C2387.2,1348.2,2390,1351,2393.5,1351z M2423.1,1574.6c0.5,7.2-5.5,13.2-12.7,12.7c-5.9-0.4-10.8-5.2-11.2-11.2
				c-0.5-7.2,5.5-13.2,12.7-12.7C2417.9,1563.8,2422.7,1568.6,2423.1,1574.6z"/>
			
				<rect x="2400.2" y="1526.5" transform="matrix(6.123234e-17 -1 1 6.123234e-17 860.6626 3944.8638)" class="st20" width="5.2" height="31.2"/>
			
				<rect x="2400.2" y="1490.6" transform="matrix(6.123234e-17 -1 1 6.123234e-17 896.5239 3909.0024)" class="st20" width="5.2" height="31.2"/>
			
				<rect x="2400.2" y="1454.8" transform="matrix(6.123234e-17 -1 1 6.123234e-17 932.3843 3873.1421)" class="st20" width="5.2" height="31.2"/>
			
				<rect x="2400.2" y="1418.9" transform="matrix(6.123234e-17 -1 1 6.123234e-17 968.2446 3837.2817)" class="st20" width="5.2" height="31.2"/>
			
				<rect x="2407.6" y="1390.5" transform="matrix(6.123234e-17 -1 1 6.123234e-17 1011.5839 3808.8984)" class="st20" width="5.2" height="16.2"/>
			
				<rect x="2407.6" y="1354.7" transform="matrix(6.123234e-17 -1 1 6.123234e-17 1047.4443 3773.0381)" class="st20" width="5.2" height="16.2"/>
			
				<rect x="2400.2" y="1311.3" transform="matrix(6.123234e-17 -1 1 6.123234e-17 1075.8267 3729.6997)" class="st20" width="5.2" height="31.2"/>
			
				<rect x="2400.2" y="1275.5" transform="matrix(6.123234e-17 -1 1 6.123234e-17 1111.688 3693.8384)" class="st20" width="5.2" height="31.2"/>
			
				<rect x="2400.2" y="1239.6" transform="matrix(6.123234e-17 -1 1 6.123234e-17 1147.5483 3657.978)" class="st20" width="5.2" height="31.2"/>
			
				<rect x="2400.2" y="1203.8" transform="matrix(6.123234e-17 -1 1 6.123234e-17 1183.4087 3622.1177)" class="st20" width="5.2" height="31.2"/>
			
				<rect x="2400.2" y="1167.9" transform="matrix(6.123234e-17 -1 1 6.123234e-17 1219.269 3586.2573)" class="st20" width="5.2" height="31.2"/>
		</g>
		
			<rect x="2406.1" y="1584.2" transform="matrix(6.123234e-17 -1 1 6.123234e-17 801.1118 4021.1616)" class="st13" width="10.1" height="51.7"/>
		
			<rect x="2406.1" y="1132.7" transform="matrix(6.123234e-17 -1 1 6.123234e-17 1252.6294 3569.644)" class="st13" width="10.1" height="51.7"/>
	</g>
	<g>
		<path class="st13" d="M2170.1,1342.6h-162.4c-3.5,0-6.4,2.8-6.4,6.4l0,0c0,3.5,2.8,6.4,6.4,6.4h162.4c3.5,0,6.4-2.8,6.4-6.4l0,0
			C2176.5,1345.4,2173.6,1342.6,2170.1,1342.6z"/>
		<polygon class="st21" points="2226.5,1423.5 2213.8,1360.6 2086.1,1360.6 1958.5,1360.6 1945.8,1423.5 1955.9,1423.5 
			1955.9,1420.6 1964.8,1420.6 1964.8,1423.5 1979,1423.5 1979,1420.6 1987.8,1420.6 1987.8,1423.5 2002,1423.5 2002,1420.6 
			2010.8,1420.6 2010.8,1423.5 2025,1423.5 2025,1420.6 2033.8,1420.6 2033.8,1423.5 2048,1423.5 2048,1420.6 2056.9,1420.6 
			2056.9,1423.5 2071,1423.5 2071,1420.6 2079.9,1420.6 2079.9,1423.5 2086.1,1423.5 2092.4,1423.5 2092.4,1420.6 2101.2,1420.6 
			2101.2,1423.5 2115.4,1423.5 2115.4,1420.6 2124.3,1420.6 2124.3,1423.5 2138.4,1423.5 2138.4,1420.6 2147.3,1420.6 
			2147.3,1423.5 2161.5,1423.5 2161.5,1420.6 2170.3,1420.6 2170.3,1423.5 2184.5,1423.5 2184.5,1420.6 2193.3,1420.6 
			2193.3,1423.5 2207.5,1423.5 2207.5,1420.6 2216.3,1420.6 2216.3,1423.5 		"/>
		<path class="st7" d="M2214,1368h-255.6c-4.9,0-8.9-4-8.9-8.9l0,0c0-4.9,4-8.9,8.9-8.9H2214c4.9,0,8.9,4,8.9,8.9l0,0
			C2222.9,1364,2218.9,1368,2214,1368z"/>
	</g>
	<g>
		<rect x="2264.6" y="1258.7" class="st13" width="4.3" height="44.8"/>
		<path class="st5" d="M2264.9,1211.7l-30.1,57.3c-1.8,3.3,0.7,7.3,4.4,7.3h55.2c3.8,0,6.2-4,4.5-7.3l-29.4-57.4
			C2268.5,1209.8,2265.8,1209.8,2264.9,1211.7z"/>
		<path class="st7" d="M2257.1,1366.7l19.4,0v-57.2c0-5.3-4.3-9.7-9.7-9.7l0,0c-5.3,0-9.7,4.3-9.7,9.7V1366.7z"/>
		<polygon class="st13" points="2257.1,1332.2 2257.1,1366.7 2276.5,1366.7 2276.5,1311 		"/>
		<path class="st22" d="M2298.8,1269.1l-29.4-57.4c-0.5-1.1-1.6-1.5-2.7-1.4v66h27.6C2298.1,1276.4,2300.5,1272.4,2298.8,1269.1z"/>
	</g>
	<g>
		<rect x="2339.6" y="1280.6" class="st13" width="3.4" height="35.7"/>
		<path class="st5" d="M2339.8,1243.1l-24,45.7c-1.4,2.7,0.5,5.9,3.5,5.9h44c3,0,4.9-3.2,3.6-5.8l-23.4-45.7
			C2342.7,1241.7,2340.6,1241.6,2339.8,1243.1z"/>
		<path class="st7" d="M2333.6,1366.7h15.4v-45.6c0-4.3-3.5-7.7-7.7-7.7l0,0c-4.3,0-7.7,3.5-7.7,7.7V1366.7z"/>
		<polygon class="st13" points="2333.6,1339.2 2333.6,1366.7 2349,1366.7 2349,1322.3 		"/>
		<path class="st22" d="M2366.8,1288.9l-23.4-45.7c-0.4-0.8-1.3-1.2-2.1-1.1v52.6h22C2366.3,1294.7,2368.2,1291.5,2366.8,1288.9z"/>
	</g>
	<polygon class="st23" points="700.6,1942.2 1165.7,1942.2 1198.5,1615.1 700.6,1615.1 	"/>
	<g>
		<polygon class="st21" points="2235.5,1720.3 2138.5,1720.3 2154.5,1942.2 2235.5,1942.2 2316.4,1942.2 2332.4,1720.3 		"/>
		<polygon class="st18" points="2148.8,1862.6 2322.1,1862.6 2326.7,1799.9 2144.3,1799.9 		"/>
		<g>
			<path class="st5" d="M2229,1788.1c-63.6,0-101.7-11.3-113.4-33.5c-9.9-18.9,3.3-37.9,3.9-38.7l1-1.4h13.8v6.4h-10.4
				c-2.5,4.3-9.3,17.9-2.6,30.7c7.5,14.2,33.4,31,114.1,30c0.7,0,76.4-2,103.6-32.6c6.6-7.4,9.7-16,9.5-25.5h-16.1v-6.4h22l0.3,2.9
				c1.2,12.6-2.4,23.8-10.9,33.3c-29,32.7-105,34.7-108.3,34.8C2233.3,1788.1,2231.1,1788.1,2229,1788.1z"/>
		</g>
		<rect x="2130.6" y="1711.5" class="st18" width="209.8" height="12.5"/>
	</g>
	<g>
		<polygon class="st17" points="1925.5,1746.1 1839.8,1746.1 1853.9,1942.2 1925.5,1942.2 1997,1942.2 2011.1,1746.1 		"/>
		<polygon class="st18" points="1848.9,1871.9 2002.1,1871.9 2006.1,1816.4 1844.9,1816.4 		"/>
		<g>
			<path class="st5" d="M1919.8,1806c-56.2,0-89.9-10-100.2-29.6c-8.7-16.7,2.9-33.5,3.4-34.2l0.8-1.2h12.2v5.7h-9.2
				c-2.2,3.8-8.2,15.8-2.3,27.1c6.6,12.6,29.5,27.4,100.8,26.5c0.6,0,67.5-1.8,91.5-28.8c5.8-6.5,8.6-14.1,8.4-22.6h-14.2v-5.7h19.5
				l0.2,2.6c1.1,11.1-2.2,21-9.6,29.4c-25.7,28.9-92.8,30.7-95.7,30.7C1923.6,1806,1921.7,1806,1919.8,1806z"/>
		</g>
		<rect x="1832.8" y="1738.3" class="st18" width="185.4" height="11.1"/>
	</g>
	<g>
		<path class="st7" d="M3054.8,876.4c0,0-13.2,91.2-7.7,142c5.6,50.8,15.3,111.3-5.6,145.4c0,0,8.4,20.2,36.2,18.8
			c0,0,5.6-91.9,0-141.3c-5.6-49.4,10.4-104.4,10.4-104.4v-55.1L3054.8,876.4z"/>
		<path class="st13" d="M2975.1,835c0,0,42.8,23.7,67.8,25.1c25.1,1.4,57.8,2.8,57.8,2.8l-2.1,32L3044,892c0,0-1.7-3.8-6.1-3.1
			c-4.3,0.7-59,39.7-59,39.7S2965.4,881.3,2975.1,835z"/>
		<path class="st22" d="M2987.4,841.3c-7.4-3.6-12.3-6.3-12.3-6.3c-9.7,46.3,3.8,93.6,3.8,93.6s3.9-2.8,9.7-6.9
			C2983.5,887.8,2985.8,855.9,2987.4,841.3z"/>
	</g>
	<g>
		<path class="st7" d="M2994.1,1293.6c0,0,13.2-91.2,7.7-142c-5.6-50.8-15.3-111.3,5.6-145.4c0,0-8.4-20.2-36.2-18.8
			c0,0-5.6,91.9,0,141.3c5.6,49.4-10.4,104.4-10.4,104.4v55.1L2994.1,1293.6z"/>
		<path class="st13" d="M3073.7,1335c0,0-42.8-23.7-67.8-25.1c-25.1-1.4-57.8-2.8-57.8-2.8l2.1-32l54.6,2.8c0,0,1.7,3.8,6.1,3.1
			c4.3-0.7,59-39.7,59-39.7S3083.5,1288.7,3073.7,1335z"/>
		<path class="st22" d="M3061.4,1328.6c7.4,3.6,12.3,6.3,12.3,6.3c9.7-46.3-3.8-93.6-3.8-93.6s-3.9,2.8-9.7,6.9
			C3065.3,1282.2,3063,1314.1,3061.4,1328.6z"/>
	</g>
	<g>
		<g>
			<rect x="3159.4" y="937.1" class="st21" width="322.6" height="5.7"/>
			<g>
				<path class="st13" d="M3165,947.4h-8.2v-38.2c0-38.6,31.4-69.9,69.9-69.9H3437v8.2h-210.3c-34,0-61.7,27.7-61.7,61.7V947.4z"/>
			</g>
			<path class="st7" d="M3508.6,921.1l-18-38.1c-4.4-9.4-8.6-19-12.2-28.8c-2.4-6.7-8.4-16.5-22.6-17.9c-21.8-2.2-42.4,0-42.4,0
				s7,88.3,72.4,109.4c0,0,17.6,2.3,23.3-12.4C3510.8,929.3,3510.4,924.9,3508.6,921.1z M3481.6,913.8c0,0-8.3,5.6-20.5-4.4
				c-9.5-7.7-28.4-27.2-33.2-43.8c-2-6.8,3.6-12.9,11.3-14C3457.4,849.1,3485.6,899.2,3481.6,913.8z"/>
		</g>
		<path class="st13" d="M3490.7,882.9c-4.4-9.4-8.6-19-12.2-28.8c-1.2-3.2-3.2-7.2-6.6-10.6c-0.7,1.2-1.2,2.8-1.5,4.8
			c-0.6,11.7,1.5,16.3,4.7,21.1c5.4,7.9,8.9,16.9,10.3,26.3c1.5,10.4,4.5,17,15.8,22.6c2.8,1.7,5.3,2.5,7.5,2.7L3490.7,882.9z"/>
	</g>
	<g>
		<g>
			<rect x="3159.4" y="1105.6" class="st21" width="322.6" height="5.7"/>
			<g>
				<path class="st13" d="M3165,1115.9h-8.2v-38.2c0-38.6,31.4-69.9,69.9-69.9H3437v8.2h-210.3c-34,0-61.7,27.7-61.7,61.7V1115.9z"
					/>
			</g>
			<path class="st7" d="M3508.6,1089.6l-18-38.1c-4.4-9.4-8.6-19-12.2-28.8c-2.4-6.7-8.4-16.5-22.6-17.9c-21.8-2.2-42.4,0-42.4,0
				s7,88.3,72.4,109.4c0,0,17.6,2.3,23.3-12.4C3510.8,1097.8,3510.4,1093.4,3508.6,1089.6z M3481.6,1082.3c0,0-8.3,5.6-20.5-4.4
				c-9.5-7.7-28.4-27.2-33.2-43.8c-2-6.8,3.6-12.9,11.3-14C3457.4,1017.6,3485.6,1067.7,3481.6,1082.3z"/>
		</g>
		<path class="st13" d="M3490.7,1051.4c-4.4-9.4-8.6-19-12.2-28.8c-1.2-3.2-3.2-7.2-6.6-10.6c-0.7,1.2-1.2,2.8-1.5,4.8
			c-0.6,11.7,1.5,16.3,4.7,21.1c5.4,7.9,8.9,16.9,10.3,26.3c1.5,10.4,4.5,17,15.8,22.6c2.8,1.7,5.3,2.5,7.5,2.7L3490.7,1051.4z"/>
	</g>
	<g>
		<g>
			<rect x="3159.4" y="1274.1" class="st21" width="322.6" height="5.7"/>
			<g>
				<path class="st13" d="M3165,1284.4h-8.2v-38.2c0-38.6,31.4-69.9,69.9-69.9H3437v8.2h-210.3c-34,0-61.7,27.7-61.7,61.7V1284.4z"
					/>
			</g>
			<path class="st7" d="M3508.6,1258.1l-18-38.1c-4.4-9.4-8.6-19-12.2-28.8c-2.4-6.7-8.4-16.5-22.6-17.9c-21.8-2.2-42.4,0-42.4,0
				s7,88.3,72.4,109.4c0,0,17.6,2.3,23.3-12.4C3510.8,1266.3,3510.4,1261.9,3508.6,1258.1z M3481.6,1250.8c0,0-8.3,5.6-20.5-4.4
				c-9.5-7.7-28.4-27.2-33.2-43.8c-2-6.8,3.6-12.9,11.3-14C3457.4,1186.1,3485.6,1236.2,3481.6,1250.8z"/>
		</g>
		<path class="st13" d="M3490.7,1219.9c-4.4-9.4-8.6-19-12.2-28.8c-1.2-3.2-3.2-7.2-6.6-10.6c-0.7,1.2-1.2,2.8-1.5,4.8
			c-0.6,11.7,1.5,16.3,4.7,21.1c5.4,7.9,8.9,16.9,10.3,26.3c1.5,10.4,4.5,17,15.8,22.6c2.8,1.7,5.3,2.5,7.5,2.7L3490.7,1219.9z"/>
	</g>
	<g>
		<path class="st7" d="M2915.3,1372.1v51.8h465.1v-51.8H2915.3z M3352,1408.8c-4.9,0-8.9-4-8.9-8.9s4-8.9,8.9-8.9s8.9,4,8.9,8.9
			S3356.9,1408.8,3352,1408.8z"/>
		<polygon class="st13" points="2915.1,1596.6 2915.1,1371.9 2966.9,1423.7 2966.9,1596.6 		"/>
		<g>
			<rect x="2957" y="1371.9" class="st20" width="3.1" height="14.8"/>
			<rect x="2983.7" y="1371.9" class="st20" width="3.1" height="14.8"/>
			<rect x="3010.5" y="1371.9" class="st20" width="3.1" height="14.8"/>
			<rect x="3037.3" y="1371.9" class="st20" width="3.1" height="14.8"/>
			<rect x="3064" y="1371.9" class="st20" width="3.1" height="14.8"/>
			<rect x="3090.8" y="1371.9" class="st20" width="3.1" height="14.8"/>
			<rect x="3117.5" y="1371.9" class="st20" width="3.1" height="14.8"/>
			<rect x="3144.3" y="1371.9" class="st20" width="3.1" height="14.8"/>
			<rect x="3171" y="1371.9" class="st20" width="3.1" height="14.8"/>
			<rect x="3197.8" y="1371.9" class="st20" width="3.1" height="14.8"/>
			<rect x="3224.5" y="1371.9" class="st20" width="3.1" height="14.8"/>
			<rect x="3251.3" y="1371.9" class="st20" width="3.1" height="14.8"/>
			<rect x="3278.1" y="1371.9" class="st20" width="3.1" height="14.8"/>
			<rect x="3304.8" y="1371.9" class="st20" width="3.1" height="14.8"/>
			<rect x="3331.6" y="1371.9" class="st20" width="3.1" height="14.8"/>
			<rect x="3358.3" y="1371.9" class="st20" width="3.1" height="14.8"/>
		</g>
	</g>
	<path class="st9" d="M3544,1479.2h-26.9c-2.7,0-4.8-2.2-4.8-4.8v-78.6c0-2.7,2.2-4.8,4.8-4.8h26.9c2.7,0,4.8,2.2,4.8,4.8v78.6
		C3548.9,1477.1,3546.7,1479.2,3544,1479.2z"/>
	<polygon class="st8" points="728.8,1942.2 1193.8,1942.2 1226.6,1615.1 728.8,1615.1 	"/>
	<rect x="700.6" y="1615.1" class="st24" width="31.5" height="327.2"/>
	<g>
		<rect x="3335.9" y="1708.9" class="st25" width="5.5" height="26.6"/>
		<rect x="3447.8" y="1708.9" class="st25" width="5.5" height="26.6"/>
		<path class="st26" d="M3557,1942.6h-324.5c-4.5,0-8.1-3.6-8.1-8.1v-119.8c0-4.5,3.6-8.1,8.1-8.1H3557c4.5,0,8.1,3.6,8.1,8.1v119.8
			C3565.2,1939,3561.5,1942.6,3557,1942.6z"/>
		<path class="st26" d="M3557,1806.6h-324.5c-4.5,0-8.1-3.6-8.1-8.1v-54.9c0-4.5,3.6-8.1,8.1-8.1H3557c4.5,0,8.1,3.6,8.1,8.1v54.9
			C3565.2,1803,3561.5,1806.6,3557,1806.6z"/>
		<path class="st13" d="M3450.8,1712.1h-112.1c-4.4,0-7.9-3.6-7.9-7.9l0,0c0-4.4,3.6-7.9,7.9-7.9h112.1c4.4,0,7.9,3.6,7.9,7.9l0,0
			C3458.8,1708.5,3455.2,1712.1,3450.8,1712.1z"/>
		<path class="st12" d="M3546.2,1797.7h-302.9c-4.5,0-8.1-3.6-8.1-8.1v-37.2c0-4.5,3.6-8.1,8.1-8.1h302.9c4.5,0,8.1,3.6,8.1,8.1
			v37.2C3554.4,1794.1,3550.7,1797.7,3546.2,1797.7z"/>
		<path class="st12" d="M3309.3,1928.1h-55.8c-10.1,0-18.3-8.2-18.3-18.3v-66.4c0-10.1,8.2-18.3,18.3-18.3h55.8
			c10.1,0,18.3,8.2,18.3,18.3v66.4C3327.7,1919.8,3319.5,1928.1,3309.3,1928.1z"/>
		<path class="st12" d="M3419.9,1928.1h-55.8c-10.1,0-18.3-8.2-18.3-18.3v-66.4c0-10.1,8.2-18.3,18.3-18.3h55.8
			c10.1,0,18.3,8.2,18.3,18.3v66.4C3438.3,1919.8,3430.1,1928.1,3419.9,1928.1z"/>
		<path class="st12" d="M3533.6,1928.1h-55.8c-10.1,0-18.3-8.2-18.3-18.3v-66.4c0-10.1,8.2-18.3,18.3-18.3h55.8
			c10.1,0,18.3,8.2,18.3,18.3v66.4C3551.9,1919.8,3543.7,1928.1,3533.6,1928.1z"/>
		<path class="st13" d="M3566.6,1810.8H3223c-2.3,0-4.2-1.9-4.2-4.2l0,0c0-2.3,1.9-4.2,4.2-4.2h343.5c2.3,0,4.2,1.9,4.2,4.2l0,0
			C3570.7,1808.9,3568.9,1810.8,3566.6,1810.8z"/>
		<path class="st13" d="M3292.9,1783.7h-41.7c-3.7,0-6.7-3-6.7-6.7v-12.2c0-3.7,3-6.7,6.7-6.7h41.7c3.7,0,6.7,3,6.7,6.7v12.2
			C3299.6,1780.8,3296.6,1783.7,3292.9,1783.7z"/>
		<path class="st13" d="M3536.9,1783.7h-41.7c-3.7,0-6.7-3-6.7-6.7v-12.2c0-3.7,3-6.7,6.7-6.7h41.7c3.7,0,6.7,3,6.7,6.7v12.2
			C3543.6,1780.8,3540.6,1783.7,3536.9,1783.7z"/>
	</g>
	<g>
		<rect x="3005.8" y="1754.5" class="st25" width="4.5" height="21.4"/>
		<rect x="3095.9" y="1754.5" class="st25" width="4.5" height="21.4"/>
		<path class="st21" d="M3182.2,1942.6h-258c-4.5,0-8.1-3.6-8.1-8.1v-93.2c0-4.5,3.6-8.1,8.1-8.1h258c4.5,0,8.1,3.6,8.1,8.1v93.2
			C3190.3,1939,3186.7,1942.6,3182.2,1942.6z"/>
		<path class="st21" d="M3182.2,1833.1h-258c-4.5,0-8.1-3.6-8.1-8.1v-41.1c0-4.5,3.6-8.1,8.1-8.1h258c4.5,0,8.1,3.6,8.1,8.1v41.1
			C3190.3,1829.5,3186.7,1833.1,3182.2,1833.1z"/>
		<path class="st19" d="M3098.3,1757H3008c-3.5,0-6.4-2.9-6.4-6.4l0,0c0-3.5,2.9-6.4,6.4-6.4h90.2c3.5,0,6.4,2.9,6.4,6.4l0,0
			C3104.7,1754.2,3101.8,1757,3098.3,1757z"/>
		<path class="st18" d="M3173.5,1825.4h-240.6c-4.5,0-8.1-3.6-8.1-8.1v-26.8c0-4.5,3.6-8.1,8.1-8.1h240.6c4.5,0,8.1,3.6,8.1,8.1
			v26.8C3181.6,1821.8,3178,1825.4,3173.5,1825.4z"/>
		<path class="st18" d="M2980.8,1930.3h-37.7c-10.1,0-18.3-8.2-18.3-18.3v-46.3c0-10.1,8.2-18.3,18.3-18.3h37.7
			c10.1,0,18.3,8.2,18.3,18.3v46.3C2999.1,1922.1,2990.9,1930.3,2980.8,1930.3z"/>
		<path class="st18" d="M3069.8,1930.3h-37.7c-10.1,0-18.3-8.2-18.3-18.3v-46.3c0-10.1,8.2-18.3,18.3-18.3h37.7
			c10.1,0,18.3,8.2,18.3,18.3v46.3C3088.2,1922.1,3080,1930.3,3069.8,1930.3z"/>
		<path class="st18" d="M3161.3,1930.9h-37.7c-10.1,0-18.3-8.2-18.3-18.3v-46.3c0-10.1,8.2-18.3,18.3-18.3h37.7
			c10.1,0,18.3,8.2,18.3,18.3v46.3C3179.7,1922.7,3171.5,1930.9,3161.3,1930.9z"/>
		<path class="st19" d="M3191.4,1836.5h-276.6c-1.8,0-3.3-1.5-3.3-3.3l0,0c0-1.8,1.5-3.3,3.3-3.3h276.6c1.8,0,3.3,1.5,3.3,3.3l0,0
			C3194.8,1835,3193.3,1836.5,3191.4,1836.5z"/>
		<path class="st19" d="M2971.9,1814.7h-35c-2.6,0-4.6-2.1-4.6-4.6v-11.2c0-2.6,2.1-4.6,4.6-4.6h35c2.6,0,4.6,2.1,4.6,4.6v11.2
			C2976.5,1812.6,2974.4,1814.7,2971.9,1814.7z"/>
		<path class="st19" d="M3168.3,1814.7h-35c-2.6,0-4.6-2.1-4.6-4.6v-11.2c0-2.6,2.1-4.6,4.6-4.6h35c2.6,0,4.6,2.1,4.6,4.6v11.2
			C3173,1812.6,3170.9,1814.7,3168.3,1814.7z"/>
	</g>
	<g>
		<path class="st27" d="M1390.6,1148l-3.1,2.8c-1.6,1.4-4,1.4-5.3-0.1l-54.7-60.3c-1.4-1.5-1.2-3.9,0.4-5.3l3.1-2.8
			c1.6-1.4,4-1.4,5.3,0.1l54.7,60.3C1392.4,1144.2,1392.2,1146.6,1390.6,1148z"/>
		<path class="st4" d="M1576.1,1099c-7.3-6-63.8,18.9-63.1,27.6c0.7,8.7-39.4,92.7-39.4,92.7l-69.4-55.5l0,0
			c-0.6-2-7.2-23.6-7.5-27.5c-0.3-4.1-12.1-11.1-17.5-10.1c-5.4,1,4.7,7.9,5.3,9.2c1.8,3.4-5.2,4.7-5.2,4.7s-20.1-11-20.5-17.5
			c-0.4-6.5-4.6-20.1-8.9-17.3c-2.2,1.5-2.2,11.1-1.5,15.7c-1.3-5.2-3.1-11.1-4.9-11.7c-3.2-1.1-4.9,3.1-4.3,5.1
			c0.6,2,5.8,24.1,7.4,26.6c1.6,2.4,33.9,28.6,38.6,34.3c0,0,89.8,103,96.2,105.7c5.6,2.4,25.6-33.1,44.5-56.7
			C1544.7,1200.8,1598.9,1117.7,1576.1,1099z"/>
		<path class="st28" d="M1757.2,1856.3c0,0,12.3,12.1,12.6,16.5c0.3,4.4,1.1,51.9-3.9,56.4c-5,4.4-19.8,7.6-15.1,12.6
			c3.6,3.8,31.2,3,49.6,2c5.3-0.3,12.1-43.1,14.2-49.4c3.1-9.1,10.6-29.7,7.8-36.1c-1.4-3.1-7.9-9.5-17.1-15.4
			c-9.7-6.3-18.9-20.2-18.9-20.2L1757.2,1856.3z"/>
		<path class="st4" d="M1629.4,1884.4c0,0,11,31.3,11.1,31.4c0.8,5,4.1,17.2,4.1,21.7c0,16.9-76.1-14.4-59-21.9
			c1.5-0.7,6.4-6.1,6.9-11.9c0.8-8.9-6.4-20-6.4-20L1629.4,1884.4z"/>
		<g>
			<path class="st25" d="M1510,1301.6c0,0-5.5,56.1-5.5,56.9c0,90.8-17.9,268-14.5,285.1c8.3,41.6,97.8,253.9,97.8,253.9l48.4-5.8
				l-63.1-254.2l23.2-102.3l32.8-202.2L1510,1301.6z"/>
			<path class="st27" d="M1672.4,1351.3l9.2,53.2l24.8,218.8l94.6,213.9c0,0-13.3,31.1-32.9,35.5l-150.6-219.6l-93.5-281l3.3-62.4
				L1672.4,1351.3z"/>
		</g>
		<path class="st14" d="M1490.7,1168.1l67.1,6.9c0,0,3.1-55.2,3.1-81.5c0-31.9-2.7-73.1-6.6-72.2c-10.8,2.5-25.3,8.5-34,20.4
			C1490.5,1082.9,1490.7,1168.1,1490.7,1168.1z"/>
		<path class="st12" d="M1523.7,1087.8c-1.4,9.7-27.2,274.5-27.2,274.5c122.2,59.2,189.6,10.5,189.6,10.5s-4-185.9,0.8-211.2
			c3.2-16.7,7.1-128-3.7-131.1c-13.9-4-29.8-8.2-47.1-10c-14.8-1.5-72.3-2.4-82.6,1C1553.5,1021.5,1529.6,1046.8,1523.7,1087.8z"/>
		<path class="st29" d="M1804.7,1842.4c0,0-28.4,80.3-39.6,84.2c-3,1-17.1,3.6-19.8,9.9c-0.8,1.9,0,8.2,0,8.2h59.3
			c0,0,7.5-35.4,10.5-50.9c0,0,15.7-38,13.9-41.5S1804.7,1842.4,1804.7,1842.4z"/>
		<path class="st29" d="M1648.9,1943.1l-8.7-27.6c0,0-18.3,7.8-27.5,6.5c-9.2-1.3-27-6.5-27-6.5c-36.5,12.1-66.5,17.9-61,27.6l0,0
			H1648.9z"/>
		<g>
			<path class="st4" d="M1481.3,1281c-0.3-0.1-1.3-0.9-1.8-1.4c2.2-25.9,1.8-51.1-6.3-59.6c0.2-0.4,2-4.2,3.8-8.1
				c9.4,7.3,13.9,26.7,12.1,58.1c-0.1,2.2-0.7,3.8-1.2,6.5C1485.1,1279.6,1482.6,1281.6,1481.3,1281z"/>
		</g>
		<path class="st11" d="M1807.1,1365.1c0.1-0.6,0.1-1.1,0-1.7c-1.8-18.3-17-172.3-19.5-178.8c-2.3-5.9-70.3-103.6-70.3-103.6
			l-33.4,45.7l65.4,87.6c1.5,5.6,25.1,109.5,25.1,109.5s4.8,18.9,7,30.3c-1,2.7-2,5.3-2.8,7.4c-2.2,4.5-4.7,8.2-7.1,11.4
			c-2.9,3.9-7.8,12.5-8.4,14.8c-0.7,2.7-1.9,8.2-2.6,11.6c-0.7,3.4-1.7,7.3-1.8,9.1c-0.1,1.1-1.2,3.3-2.1,4.9
			c-1.3,2.3,0.9,5.1,3.4,4.2c2.4-0.8,4.2-3.9,5.4-5.8c3.2-5.4,4.9-15.3,5.7-14.8c0.8,0.5,3.6,17.3,4.1,19.3c0.4,1.9,3.8,21.4,5.7,25
			c1.9,3.6,4.4,3,5.1,0.7c0.6-1.9-2.1-29.3-2.1-29.3s-0.3-3.5,1.2-2.4s4,25.9,5.1,29.5c1.1,3.6,3.5,5.6,5.5,2.6
			c2.5-3.5-1.8-29.9-1.8-29.9s-0.5-3.3,0.9-3s3.2,21.5,4.3,23.3c1.1,1.8,3.9,2.5,5.2-0.6c1.6-3.6-2.5-27.1-2.5-27.1s0.2-1.9,1.1-1.2
			c0.9,0.6,3.7,18.5,5.5,20.2c1.5,1.4,2.8,0,2.8,0c3.3-2.3-1.8-19.3-1.7-27.8c0.1-8.5-3.9-18-2.7-28.1
			C1806.7,1367.6,1806.9,1366.1,1807.1,1365.1z"/>
		<path class="st12" d="M1770.4,1142.8l-58.1,39.2c0,0-32.8-48.9-50.3-66.3c-22-21.8,8-88.6,22.2-84.9
			C1715.9,1039.2,1770.4,1142.8,1770.4,1142.8z"/>
		<path class="st4" d="M1631.8,963.2l8.7,57.5c0,0-31.7,68.5-50.7,62.5c-15.9-5-6.1-65.6-6.1-65.6s8.7-32.5,6.1-48.8
			S1631.8,963.2,1631.8,963.2z"/>
		<path class="st10" d="M1589.7,968.9c-2.6-16.3,42.1-5.7,42.1-5.7l0.7,4.8c-1.3,3.2-2.9,5.9-4.8,8c-10,10.8-25.6,17.2-39,17.7
			C1590,984.9,1590.8,975.5,1589.7,968.9z"/>
		<g>
			<path class="st4" d="M1639.1,881.9c1.3-0.5,10.1,65.5-6.7,83.6c-16.8,18.1-49.5,24.1-61.3,9.8c-13-15.8-12.3-86.7,13.8-105.3
				C1611.1,851.3,1639.1,881.9,1639.1,881.9z"/>
			<path class="st7" d="M1594.9,834.7c20.2,4.1,33.3,16.5,38.1,21.8c9.2,1.1,21.6,6.2,34.5,27.6c15.8,26.3,4.1,55.4-14.3,69.7
				c-18.4,14.3-18.2,30.8-18.2,30.8l-2.9-8.5c-2.1-6.5-3-13.3-2.3-20.1c0.4-4.1,1.3-8.5,3-12.1c4.4-9.5-9.5-15.9-13.4-23.8
				c-3-6.1-3.2-20.1-7.9-30.2l-5.7-7.7c0,0-13.1-10.2-25.9-7.3C1567.1,877.6,1569,829.4,1594.9,834.7z"/>
			<path class="st4" d="M1620.2,931.7c-0.1,8,3.5,14.6,8.1,14.7c4.6,0.1,8.5-6.4,8.6-14.4c0.1-8-3.5-14.6-8.1-14.7
				C1624.2,917.2,1620.3,923.6,1620.2,931.7z"/>
		</g>
		<path class="st3" d="M1592.9,950.3l-25.3-1.3c0,0,0.1,9.7,11.2,10.6C1592.4,960.6,1592.9,950.3,1592.9,950.3z"/>
	</g>
	<path class="st3" d="M777.8,957.7l-25.3-1.3c0,0,0.1,9.7,11.2,10.6C777.3,968.1,777.8,957.7,777.8,957.7z"/>
	<g>
		<path class="st11" d="M2561.5,1171.1c1.2,4,1.8,5.3,3.3,8c9.5,17.3,31.4,42,31.4,42l17-38.5c0,0-2.8-12.1-7.6-29.4
			C2589.2,1157.6,2573.6,1160.1,2561.5,1171.1z"/>
		<path class="st12" d="M2658.8,1137.7c0,0-94.6,41-97.7,40.2c-2-0.5-38.8-62.6-39.2-121c-0.2-27,27.6-59.4,58.7-53
			c15.6,3.2,15.4,7.6,38.5,41.4S2658.8,1137.7,2658.8,1137.7z"/>
		<path class="st4" d="M2739.6,1873.3c0,0-2.2,37.4-2.3,37.5c-0.8,4.8-4.1,16.5-4.1,20.8c0,16.2,76.5-13.8,59.4-21
			c-1.6-0.7-9.7-5.6-10.2-11.1c-0.8-8.5-2.8-25.7-2.8-25.7L2739.6,1873.3z"/>
		<path class="st13" d="M2792.4,1910.4c0,0-18,5-27.2,6.2c-9.2,1.2-21.3-9.2-27.8-6.4c-7.2,3.1-6.9,31.1-6.9,31.1s96.4,8,123.4-0.3
			C2864.7,1937.8,2829.1,1922,2792.4,1910.4z"/>
		<path class="st4" d="M2583,1873.3c0,0-2.2,37.4-2.3,37.5c-0.8,4.8-4.1,16.5-4.1,20.8c0,16.2,76.5-13.8,59.4-21
			c-1.6-0.7-12.1-9.2-12.6-14.8c-0.8-8.5-0.4-22-0.4-22L2583,1873.3z"/>
		<path class="st13" d="M2635.9,1910.4c0,0-18,5-27.2,6.2c-9.2,1.2-21.3-9.2-27.8-6.4c-7.2,3.1-7.5,31.1-7.5,31.1s96.8,9.3,124-0.3
			C2708,1937.3,2672.6,1922,2635.9,1910.4z"/>
		<g>
			<path class="st4" d="M2606.4,1191.8l67.4-95c0.3-0.8,0.9-2.5,1.8-5.1c3.4-9.4,10.5-29.1,16.6-48.6l0.1-0.2
				c1.9-6.8,6-18.7,10-30.2c4.4-12.8,9.9-28.7,10.1-31.4c-0.2-0.5-0.5-1.3-0.9-2.4c-2.5-6.5-5.8-21.8-7-28.5
				c-0.8-4.3-1.5-14.6,3.5-14.6c7.9,0,4.1,10.3,7.8,16.8c1.3-4.3,4-12.9,5.5-21.5l1.3-20.2c0.3-1.5-1.4-12.7,4.2-12.7l0.3,0
				c5,0.4,4.9,12.2,6.9,32.3c0.7-2.3,1.3-5.1,1.8-7.6c-0.1-1.4,0.9-7.4,1.7-10.6c-1-5.6-0.4-14.4,5.5-13.6c3,0.4,2.7,12.7,2.7,12.7
				c0,1.7-0.2,14.7-0.1,17.3c0.6-4.4,3-23,7.6-23c3.8,0,4.2,5,4.1,9c0,2.3-2.5,22.5-2.6,24.8c1.8-3.1,4-20.8,5.8-20.8
				c7.5,0,4.8,25.3,2,31.8c-0.3,0.7-0.5,2-0.9,3.5c-0.9,4.5-2.5,12-6.4,18.8c-4.7,8.1-11.2,21-12.2,23c-0.7,4-3,18.5-5.8,36.7
				c-1.2,7.8-2.5,16.3-3.9,25.2l-0.1,0c-0.3,1.9-1.7,8-7,30.9c-7.3,31.3-8.1,32.6-8.4,33.2c-3.2,5.6-75.8,105-78.9,109.2l-1.8,2.5
				L2606.4,1191.8z"/>
			<path class="st10" d="M2731.8,970.2c0,0-5.5-14.1-15.2-14.1c0,0,5.4-2,10.1,1.7C2731.3,961.5,2731.8,970.2,2731.8,970.2z"/>
		</g>
		<g>
			<path class="st4" d="M2590.1,943l-8.7,55.2c0,0,33.1,26.7,52.3,21.1c16.2-4.7,5.1-26,5.1-26s-8.6-29.5-6-44.9
				C2635.5,932.9,2590.1,943,2590.1,943z"/>
			<path class="st30" d="M2596.3,959.7c8.3,3.9,24.7,9.3,37.4,10.6c-1.2-7.7-1.9-15.9-0.9-21.9c1.2-7.1-7.8-8.8-17.9-8.6
				c-13.2,1.1-24.9,3.2-24.9,3.2l-1.7,10.6C2590.9,956.2,2593.6,958.4,2596.3,959.7z"/>
			<path class="st4" d="M2548.4,879.3c-1.4,0,13.1,61.7,35.4,72.3c22.3,10.6,55.6,5.1,61.9-11.5c6.9-18.4-18.3-81.3-49.7-89.3
				C2564.6,842.7,2548.4,879.3,2548.4,879.3z"/>
			<path class="st29" d="M2574.2,822.6c-17.8,10.4-26,25.7-28.8,32c-8.4,4-18.5,12.7-23.4,36c-6,28.7,15.3,50.8,37.8,57.4
				c22.5,6.6,26,21.7,26,21.7l2.6-16.2c0,0-5-14.1-12.6-21.1c-7.5-7,3.6-17.3,4.5-25.7c0.8-6.4-4-19-2.9-29.5
				c0,0,12.5-19.1,24.9-23.8C2623.5,845.2,2597.1,809.3,2574.2,822.6z"/>
			<path class="st4" d="M2583.7,917.4c2.9,7.1,1.7,14.2-2.7,15.8c-4.4,1.6-10.3-2.9-13.2-10c-2.9-7.1-1.7-14.2,2.7-15.8
				C2574.9,905.8,2580.8,910.3,2583.7,917.4z"/>
		</g>
		<path class="st11" d="M2666.9,1193.4l130-21.3c0,0-14.8-37.5-20.1-37.5s-98.3,40.9-98.3,40.9l-7.4,15L2666.9,1193.4z"/>
		<path class="st16" d="M2600.3,1283.1c0,0-13,63.1-7.7,111c5.3,47.9,5.7,217.9,5.7,217.9l-20.2,272l47.9,1
			c0,0,56.7-271.9,55.7-264.9c-1.1,7,19-191.4,19-191.4l-67.7-151.5L2600.3,1283.1z"/>
		<path class="st7" d="M2613,1280.1c0,0-8.5,56.8,2.1,81.8c10.6,24.9,90.7,269.5,91.7,289.4c1.1,19.9,27.7,240.3,27.7,240.3
			l55.6-1.6l12-245l-25.2-308l-24.5-77.9L2613,1280.1z"/>
		<path class="st4" d="M2581.4,998.2c0,0,13.7,9.1,26.5,8s30.9-12.9,30.9-12.9l-2.5-8.6c0,0-33.1-4.9-33.9-4.3
			C2601.6,980.9,2581.4,998.2,2581.4,998.2z"/>
		<path class="st11" d="M2727.7,1132.7c0,0,49.2,46.7,71.4,38.7c22.2-8,31.4-35.2-22.8-75.1
			C2727.8,1060.6,2727.7,1132.7,2727.7,1132.7z"/>
		<path class="st26" d="M2761,1190.4c-7.3-40-60.3-164.5-64.5-187.4c-2.1-11.2-30.6-11.4-57.8-9.9c-28.7,1.5-57.3,5.2-57.3,5.2
			s-25.4,4.2-36.6,14.8c-11.2,10.6-14.2,39.7,1.9,95.2c12.7,43.7,28.4,67.8,36.2,99.6c1.6,10.7,2.9,21.2,4.7,33.6
			c2.9,47.6,0,110.6,0,110.6s138.5,28.9,190.3-15C2777.9,1336.9,2768.5,1231.4,2761,1190.4z"/>
		<path class="st12" d="M2796.3,1104.4c0,0-54.3,45.1-57.5,45.1c-2,0-77.5-55.9-95-101.8c-9.6-25.4,10.6-53.8,33.7-53.7
			c16,0.1,23.1,4.2,54.8,31.1C2764,1052,2796.3,1104.4,2796.3,1104.4z"/>
	</g>
</g>
</svg>
