<svg width="187" height="56" viewBox="0 0 187 56" fill="none" xmlns="http://www.w3.org/2000/svg">
<path d="M51.3529 46C51.2675 46 51.2249 45.92 51.2249 45.76C51.2249 45.6213 51.2675 45.552 51.3529 45.552H51.5769C51.9289 45.552 52.2489 45.4293 52.5369 45.184C52.8249 44.9387 52.9689 44.6347 52.9689 44.272V35.824C52.9689 35.4507 52.8569 35.1947 52.6329 35.056C52.4195 34.9067 52.0675 34.832 51.5769 34.832H51.3529C51.2782 34.832 51.2409 34.7573 51.2409 34.608C51.2409 34.4587 51.2782 34.384 51.3529 34.384H54.3449L58.3129 43.84L62.4729 34.384H65.3209C65.3742 34.384 65.4062 34.4053 65.4169 34.448C65.4382 34.48 65.4489 34.5333 65.4489 34.608C65.4489 34.7573 65.4062 34.832 65.3209 34.832H65.0809C64.5795 34.832 64.2275 34.9067 64.0249 35.056C63.8222 35.2053 63.7209 35.4613 63.7209 35.824V44.544C63.7209 44.9173 63.8275 45.1787 64.0409 45.328C64.2542 45.4773 64.6009 45.552 65.0809 45.552H65.3209C65.3955 45.552 65.4329 45.6213 65.4329 45.76C65.4329 45.92 65.3955 46 65.3209 46H60.8249C60.7609 46 60.7289 45.92 60.7289 45.76C60.7289 45.6213 60.7609 45.552 60.8249 45.552H61.0969C61.5875 45.552 61.9395 45.4773 62.1529 45.328C62.3662 45.168 62.4729 44.9067 62.4729 44.544V35.888L58.0729 46H57.8809L53.5929 35.872V44.272C53.5929 44.6347 53.7422 44.9387 54.0409 45.184C54.3395 45.4293 54.6489 45.552 54.9689 45.552H55.2249C55.2889 45.552 55.3209 45.6213 55.3209 45.76C55.3209 45.92 55.2889 46 55.2249 46H51.3529ZM70.324 46C70.2387 46 70.196 45.9253 70.196 45.776C70.196 45.6267 70.2387 45.552 70.324 45.552H70.564C71.044 45.552 71.3907 45.472 71.604 45.312C71.828 45.152 71.94 44.896 71.94 44.544V42.096L68.66 35.824C68.308 35.1627 67.8547 34.832 67.3 34.832H67.044C66.9693 34.832 66.932 34.7573 66.932 34.608C66.932 34.4587 66.9693 34.384 67.044 34.384H71.412C71.4653 34.384 71.4973 34.4053 71.508 34.448C71.5293 34.48 71.54 34.5333 71.54 34.608C71.54 34.7573 71.4973 34.832 71.412 34.832H71.156C70.324 34.832 69.908 35.024 69.908 35.408C69.908 35.5253 69.9507 35.6693 70.036 35.84C70.1747 36.128 71.1293 37.8987 72.9 41.152C74.34 38.4533 75.2147 36.7893 75.524 36.16C75.6093 35.968 75.652 35.8133 75.652 35.696C75.652 35.4187 75.5187 35.2053 75.252 35.056C74.9853 34.9067 74.7347 34.832 74.5 34.832H74.228C74.1533 34.832 74.116 34.7573 74.116 34.608C74.116 34.4587 74.1533 34.384 74.228 34.384H78.228C78.2813 34.384 78.3133 34.4053 78.324 34.448C78.3453 34.48 78.356 34.5333 78.356 34.608C78.356 34.7573 78.3133 34.832 78.228 34.832H77.988C77.7107 34.832 77.4067 34.9493 77.076 35.184C76.756 35.4187 76.4893 35.7333 76.276 36.128L73.236 41.76V44.544C73.236 44.9173 73.348 45.1787 73.572 45.328C73.8067 45.4773 74.1533 45.552 74.612 45.552H74.852C74.9373 45.552 74.98 45.6267 74.98 45.776C74.98 45.9253 74.9373 46 74.852 46H70.324ZM94.4155 45.552C94.4902 45.552 94.5275 45.6213 94.5275 45.76C94.5275 45.92 94.4902 46 94.4155 46H91.6475C91.2208 45.232 90.6662 44.2667 89.9835 43.104C89.3008 41.9307 88.7408 41.0293 88.3035 40.4C88.0048 40.4213 87.7808 40.432 87.6315 40.432H86.5915V44.544C86.5915 44.9173 86.7035 45.1787 86.9275 45.328C87.1622 45.4773 87.5088 45.552 87.9675 45.552H88.2235C88.2982 45.552 88.3355 45.6213 88.3355 45.76C88.3355 45.92 88.2982 46 88.2235 46H83.6795C83.6048 46 83.5675 45.9253 83.5675 45.776C83.5675 45.6267 83.6048 45.552 83.6795 45.552H83.9355C84.4155 45.552 84.7622 45.4773 84.9755 45.328C85.1995 45.1787 85.3115 44.9173 85.3115 44.544V35.84C85.3115 35.4667 85.1942 35.2053 84.9595 35.056C84.7248 34.9067 84.3782 34.832 83.9195 34.832H83.6635C83.5888 34.832 83.5515 34.7573 83.5515 34.608C83.5515 34.4587 83.5888 34.384 83.6635 34.384L87.3435 34.368H88.7995C89.4822 34.3787 90.1115 34.5067 90.6875 34.752C91.2742 34.9867 91.7435 35.3333 92.0955 35.792C92.4475 36.24 92.6235 36.7627 92.6235 37.36C92.6235 38.0747 92.3462 38.6667 91.7915 39.136C91.2475 39.5947 90.5382 39.9413 89.6635 40.176C89.9622 40.5707 90.5328 41.4507 91.3755 42.816C92.0688 43.9147 92.4688 44.544 92.5755 44.704C92.7568 44.96 92.9862 45.168 93.2635 45.328C93.5515 45.4773 93.9355 45.552 94.4155 45.552ZM87.0715 39.984C88.5968 39.984 89.6582 39.728 90.2555 39.216C90.8528 38.704 91.1515 38.0587 91.1515 37.28C91.1515 36.4053 90.8368 35.7813 90.2075 35.408C89.5888 35.0347 88.8315 34.848 87.9355 34.848C87.5302 34.848 87.2048 34.912 86.9595 35.04C86.7142 35.1573 86.5915 35.424 86.5915 35.84V39.984H87.0715ZM100.973 46.224C100.141 46.224 99.3192 45.9947 98.5085 45.536C97.7085 45.0667 97.0472 44.3787 96.5245 43.472C96.0018 42.5653 95.7405 41.4827 95.7405 40.224C95.7405 38.976 96.0018 37.8987 96.5245 36.992C97.0472 36.0853 97.7085 35.4027 98.5085 34.944C99.3192 34.4747 100.141 34.24 100.973 34.24C101.805 34.24 102.621 34.4747 103.421 34.944C104.221 35.4027 104.882 36.0853 105.405 36.992C105.927 37.8987 106.189 38.976 106.189 40.224C106.189 41.4827 105.927 42.5653 105.405 43.472C104.882 44.3787 104.221 45.0667 103.421 45.536C102.621 45.9947 101.805 46.224 100.973 46.224ZM100.973 45.696C101.613 45.696 102.215 45.4933 102.781 45.088C103.357 44.672 103.821 44.0533 104.173 43.232C104.535 42.4 104.717 41.3973 104.717 40.224C104.717 39.0613 104.535 38.0693 104.173 37.248C103.821 36.4267 103.357 35.8133 102.781 35.408C102.215 34.992 101.613 34.784 100.973 34.784C100.333 34.784 99.7245 34.992 99.1485 35.408C98.5725 35.8133 98.1085 36.4267 97.7565 37.248C97.4045 38.0693 97.2285 39.0613 97.2285 40.224C97.2285 41.3973 97.4045 42.4 97.7565 43.232C98.1085 44.0533 98.5725 44.672 99.1485 45.088C99.7245 45.4933 100.333 45.696 100.973 45.696ZM113.316 46.224C112.484 46.224 111.663 45.9947 110.852 45.536C110.052 45.0667 109.391 44.3787 108.868 43.472C108.346 42.5653 108.084 41.4827 108.084 40.224C108.084 38.976 108.346 37.8987 108.868 36.992C109.391 36.0853 110.052 35.4027 110.852 34.944C111.663 34.4747 112.484 34.24 113.316 34.24C114.148 34.24 114.964 34.4747 115.764 34.944C116.564 35.4027 117.226 36.0853 117.748 36.992C118.271 37.8987 118.532 38.976 118.532 40.224C118.532 41.4827 118.271 42.5653 117.748 43.472C117.226 44.3787 116.564 45.0667 115.764 45.536C114.964 45.9947 114.148 46.224 113.316 46.224ZM113.316 45.696C113.956 45.696 114.559 45.4933 115.124 45.088C115.7 44.672 116.164 44.0533 116.516 43.232C116.879 42.4 117.06 41.3973 117.06 40.224C117.06 39.0613 116.879 38.0693 116.516 37.248C116.164 36.4267 115.7 35.8133 115.124 35.408C114.559 34.992 113.956 34.784 113.316 34.784C112.676 34.784 112.068 34.992 111.492 35.408C110.916 35.8133 110.452 36.4267 110.1 37.248C109.748 38.0693 109.572 39.0613 109.572 40.224C109.572 41.3973 109.748 42.4 110.1 43.232C110.452 44.0533 110.916 44.672 111.492 45.088C112.068 45.4933 112.676 45.696 113.316 45.696ZM120.556 46C120.471 46 120.428 45.92 120.428 45.76C120.428 45.6213 120.471 45.552 120.556 45.552H120.78C121.132 45.552 121.452 45.4293 121.74 45.184C122.028 44.9387 122.172 44.6347 122.172 44.272V35.824C122.172 35.4507 122.06 35.1947 121.836 35.056C121.623 34.9067 121.271 34.832 120.78 34.832H120.556C120.481 34.832 120.444 34.7573 120.444 34.608C120.444 34.4587 120.481 34.384 120.556 34.384H123.548L127.516 43.84L131.676 34.384H134.524C134.577 34.384 134.609 34.4053 134.62 34.448C134.641 34.48 134.652 34.5333 134.652 34.608C134.652 34.7573 134.609 34.832 134.524 34.832H134.284C133.783 34.832 133.431 34.9067 133.228 35.056C133.025 35.2053 132.924 35.4613 132.924 35.824V44.544C132.924 44.9173 133.031 45.1787 133.244 45.328C133.457 45.4773 133.804 45.552 134.284 45.552H134.524C134.599 45.552 134.636 45.6213 134.636 45.76C134.636 45.92 134.599 46 134.524 46H130.028C129.964 46 129.932 45.92 129.932 45.76C129.932 45.6213 129.964 45.552 130.028 45.552H130.3C130.791 45.552 131.143 45.4773 131.356 45.328C131.569 45.168 131.676 44.9067 131.676 44.544V35.888L127.276 46H127.084L122.796 35.872V44.272C122.796 44.6347 122.945 44.9387 123.244 45.184C123.543 45.4293 123.852 45.552 124.172 45.552H124.428C124.492 45.552 124.524 45.6213 124.524 45.76C124.524 45.92 124.492 46 124.428 46H120.556Z" fill="#7B30C8"/>
<path d="M187 52.75H0V55.25H187V52.75Z" fill="#923FE8" mask="url(#path-1-outside-1_408_847)"/>
<path d="M94.6693 19.0167C94.8238 19.3971 94.93 19.8047 94.9589 20.2185L100.181 22.3322L101.137 24.5892L98.8798 25.5456L98.1565 23.3828L96.6324 24.1683L96.0839 22.5438L94.0598 23.5944L93.6581 23.4318C93.1223 23.9179 92.4598 24.2424 91.7472 24.3676C91.0347 24.4929 90.3012 24.4137 89.6318 24.1394C87.6234 23.3265 86.6671 21.0694 87.4801 19.061L87.5158 18.9727C87.5656 19.0115 87.5895 19.0679 87.6247 19.1196C88.0269 19.5348 88.4923 19.8635 88.9982 20.115C88.9782 20.4228 89.0685 20.7276 89.2528 20.9748C89.4371 21.2221 89.7034 21.3957 90.004 21.4645C90.3047 21.5333 90.62 21.4929 90.8935 21.3504C91.167 21.2079 91.3809 20.9728 91.4968 20.687L91.5293 20.6066C92.7416 20.499 93.8625 19.9242 94.6693 19.0167ZM89.5938 13.8393C89.0877 13.6344 88.5571 13.5132 88.0407 13.4724C88.7817 12.5195 89.951 11.9176 91.2528 11.9584C92.7814 12.0162 94.0603 12.9452 94.6536 14.2513L100.278 14.4241L101.945 16.24L100.149 17.9063L98.7256 16.1333L97.5649 17.3838L96.4985 16.0453L94.9482 17.7271L94.5267 17.7061C94.1851 18.3451 93.6715 18.8757 93.044 19.238C92.4165 19.6003 91.7002 19.7798 90.976 19.7562C89.9426 19.7176 88.9666 19.2711 88.2617 18.5143C87.5569 17.7576 87.1807 16.7524 87.2154 15.7189C87.2258 15.5548 87.2554 15.3891 87.2786 15.2396C86.6552 15.2981 86.0598 15.5266 85.5574 15.9003C85.0549 16.274 84.6647 16.7784 84.4293 17.3586C83.7106 19.134 84.5665 21.1541 86.3419 21.8727C86.4142 21.902 86.4785 21.928 86.5605 21.9332C86.6701 22.2861 86.8055 22.6214 86.9893 22.9295C86.6628 22.8815 86.3381 22.8062 86.0167 22.6761C83.7995 21.7786 82.7284 19.2507 83.626 17.0334C84.5235 14.8162 87.0514 13.7451 89.2686 14.6427C90.2005 15.0199 90.9139 15.6827 91.3821 16.4893C91.9334 14.7116 89.5938 13.8393 89.5938 13.8393ZM90.2435 17.0849C90.3995 17.092 90.5413 17.0652 90.6782 17.0271C90.3301 16.3626 89.7691 15.8083 89.0318 15.4818C89.0121 15.5766 88.9989 15.6554 88.9905 15.7455C88.9698 16.4664 89.5241 17.0835 90.2435 17.0849Z" fill="#923FE8"/>
<line y1="24.5" x2="70" y2="24.5" stroke="#7B30C8"/>
<line x1="117" y1="24.5" x2="187" y2="24.5" stroke="#7B30C8"/>
<mask id="path-7-outside-2_408_847" maskUnits="userSpaceOnUse" x="73.5858" y="0.171577" width="38.1838" height="38.1838" fill="black">
<rect fill="white" x="73.5858" y="0.171577" width="38.1838" height="38.1838"/>
<path d="M75 20.6777L92.6777 3L110.355 20.6777L92.6777 38.3553L75 20.6777Z"/>
</mask>
<path d="M92.6777 3L94.0919 1.58579L92.6777 0.171577L91.2635 1.58579L92.6777 3ZM76.4142 22.0919L94.0919 4.41422L91.2635 1.58579L73.5858 19.2635L76.4142 22.0919ZM91.2635 4.41422L108.941 22.0919L111.77 19.2635L94.0919 1.58579L91.2635 4.41422Z" fill="#7B30C8" mask="url(#path-7-outside-2_408_847)"/>
</svg>
